<svg width="437" height="52" fill="none" xmlns="http://www.w3.org/2000/svg"><path d="M53.2 33a.505.505 0 01-.34-.12.505.505 0 01-.12-.34V19.48c0-.147.04-.26.12-.34a.463.463 0 01.34-.14h8.26a.4.4 0 01.32.14c.093.08.14.193.14.34v.76c0 .133-.04.247-.12.34-.08.08-.193.12-.34.12h-6.8v4.38h6.36a.4.4 0 01.32.14c.093.08.14.193.14.34v.74a.463.463 0 01-.14.34.433.433 0 01-.32.12h-6.36v4.54h6.96c.147 0 .26.04.34.12.08.08.12.193.12.34v.78a.463.463 0 01-.14.34.433.433 0 01-.32.12H53.2zm15.492.2c-1.427 0-2.547-.4-3.36-1.2-.8-.813-1.227-1.947-1.28-3.4l-.02-.8.02-.8c.053-1.453.48-2.58 1.28-3.38.813-.813 1.933-1.22 3.36-1.22.96 0 1.773.173 2.44.52.666.347 1.16.773 1.48 1.28.333.507.513 1.013.54 1.52a.35.35 0 01-.12.32.504.504 0 01-.34.12h-.96c-.134 0-.234-.027-.3-.08-.067-.053-.134-.16-.2-.32-.227-.64-.547-1.093-.96-1.36-.414-.28-.934-.42-1.56-.42-.827 0-1.487.26-1.98.78-.48.507-.74 1.287-.78 2.34l-.02.72.02.68c.04 1.067.3 1.853.78 2.36.48.507 1.14.76 1.98.76.626 0 1.146-.133 1.56-.4.413-.28.733-.74.96-1.38.066-.16.133-.267.2-.32.066-.067.166-.1.3-.1h.96c.133 0 .246.047.34.14a.35.35 0 01.12.32c-.027.493-.207 1-.54 1.52-.32.507-.814.933-1.48 1.28-.654.347-1.467.52-2.44.52zm10.015-.2a.504.504 0 01-.34-.12.505.505 0 01-.12-.34V24.2h-3.48a.504.504 0 01-.34-.12.505.505 0 01-.12-.34v-.68c0-.133.04-.24.12-.32a.463.463 0 01.34-.14h8.8a.4.4 0 01.32.14.4.4 0 01.14.32v.68a.463.463 0 01-.14.34.433.433 0 01-.32.12h-3.48v8.34c0 .133-.04.247-.12.34a.433.433 0 01-.32.12h-.94zm7.514 0a.504.504 0 01-.34-.12.505.505 0 01-.12-.34v-9.48c0-.133.04-.24.12-.32a.463.463 0 01.34-.14h.96a.4.4 0 01.32.14.4.4 0 01.14.32V26h2.24c1.32 0 2.3.313 2.94.94.654.613.98 1.487.98 2.62 0 1.173-.346 2.04-1.04 2.6-.68.56-1.72.84-3.12.84h-3.42zm3.5-1.5c.814 0 1.4-.147 1.76-.44.374-.293.56-.793.56-1.5s-.186-1.227-.56-1.56c-.36-.333-.946-.5-1.76-.5h-2.1v4h2.1zm11.682 1.5a.505.505 0 01-.34-.12.534.534 0 01-.12-.36V19.48c0-.147.04-.26.12-.34a.463.463 0 01.34-.14h1.04a.4.4 0 01.32.14c.093.093.14.207.14.34v10.34l7.46-10.54a.536.536 0 01.5-.28h.98a.4.4 0 01.32.14c.093.08.14.193.14.34v13.06a.464.464 0 01-.14.34.433.433 0 01-.32.12h-1.02a.505.505 0 01-.34-.12.464.464 0 01-.14-.34V22.28l-7.44 10.44a.536.536 0 01-.5.28h-1zm24.624-.7a.36.36 0 01.06.22.464.464 0 01-.14.34.4.4 0 01-.32.14h-1.14a.57.57 0 01-.32-.08 1.094 1.094 0 01-.2-.22l-3.84-5.9h-2.38v5.74a.464.464 0 01-.14.34.505.505 0 01-.34.12h-1.02a.505.505 0 01-.34-.12.505.505 0 01-.12-.34V19.48c0-.147.04-.26.12-.34a.463.463 0 01.34-.14h1.02c.147 0 .26.047.34.14.093.08.14.193.14.34V25l2.28.02 3.54-5.7c.133-.213.36-.32.68-.32h1.08c.28 0 .42.133.42.4a.532.532 0 01-.1.26l-3.84 6.12 4.22 6.52zm1.481-4.46a.505.505 0 01-.34-.12.505.505 0 01-.12-.34v-.76c0-.133.04-.24.12-.32a.463.463 0 01.34-.14h6a.4.4 0 01.32.14c.093.08.14.187.14.32v.76a.464.464 0 01-.14.34.433.433 0 01-.32.12h-6zm8.727 7.36a.465.465 0 01-.34-.14.433.433 0 01-.12-.32v-2.88c0-.133.04-.24.12-.32a.465.465 0 01.34-.14h.1c.56-.013.98-.48 1.26-1.4.294-.92.44-2.38.44-4.38v-2.56c0-.133.04-.24.12-.32a.465.465 0 01.34-.14h6.38a.4.4 0 01.32.14c.094.08.14.187.14.32v8.3h.94a.4.4 0 01.32.14c.094.08.14.187.14.32v2.92c0 .133-.046.24-.14.32a.4.4 0 01-.32.14h-.94a.465.465 0 01-.34-.14.433.433 0 01-.12-.32V33h-7.24v1.74c0 .133-.046.24-.14.32a.4.4 0 01-.32.14h-.94zm7.24-3.84V24.2h-3.62v1.64c0 2.667-.38 4.52-1.14 5.56l4.76-.04zm8.253 1.84c-.654 0-1.26-.133-1.82-.4a3.483 3.483 0 01-1.34-1.08c-.32-.467-.48-.98-.48-1.54 0-.88.36-1.6 1.08-2.16.733-.573 1.72-.947 2.96-1.12l2.98-.42v-.58c0-1.36-.78-2.04-2.34-2.04-.587 0-1.067.127-1.44.38-.374.24-.654.527-.84.86a.549.549 0 01-.16.26c-.054.053-.134.08-.24.08h-.86a.477.477 0 01-.32-.12.478.478 0 01-.12-.32c.013-.32.16-.68.44-1.08.293-.413.74-.767 1.34-1.06.6-.307 1.34-.46 2.22-.46 1.493 0 2.566.353 3.22 1.06.653.693.98 1.56.98 2.6v6.48a.464.464 0 01-.14.34.433.433 0 01-.32.12h-.92a.503.503 0 01-.34-.12.505.505 0 01-.12-.34v-.86c-.294.427-.72.787-1.28 1.08-.56.293-1.274.44-2.14.44zm.42-1.5c.866 0 1.573-.28 2.12-.84.56-.573.84-1.393.84-2.46v-.56l-2.32.34c-.947.133-1.66.36-2.14.68-.48.307-.72.7-.72 1.18 0 .533.22.947.66 1.24.44.28.96.42 1.56.42zm7.215 1.3a.461.461 0 01-.34-.14.46.46 0 01-.14-.34v-.74c0-.133.04-.24.12-.32.08-.08.18-.12.3-.12.64-.027 1.113-.48 1.42-1.36.32-.893.48-2.347.48-4.36v-2.56c0-.133.04-.24.12-.32a.461.461 0 01.34-.14h6.36a.4.4 0 01.32.14c.093.08.14.187.14.32v9.48a.464.464 0 01-.14.34.433.433 0 01-.32.12h-.96a.431.431 0 01-.32-.12.505.505 0 01-.12-.34V24.2h-3.6v1.64c0 2.547-.294 4.38-.88 5.5-.587 1.107-1.514 1.66-2.78 1.66zm12.561 0a.506.506 0 01-.34-.12.505.505 0 01-.12-.34v-9.48c0-.133.04-.24.12-.32a.465.465 0 01.34-.14h.96a.4.4 0 01.32.14c.094.08.14.187.14.32V26h2.24c1.32 0 2.3.313 2.94.94.654.613.98 1.487.98 2.62 0 1.173-.346 2.04-1.04 2.6-.68.56-1.72.84-3.12.84h-3.42zm3.5-1.5c.814 0 1.4-.147 1.76-.44.374-.293.56-.793.56-1.5s-.186-1.227-.56-1.56c-.36-.333-.946-.5-1.76-.5h-2.1v4h2.1zm6.52 1.5a.505.505 0 01-.34-.12.505.505 0 01-.12-.34v-9.48c0-.133.04-.24.12-.32a.463.463 0 01.34-.14h.96a.4.4 0 01.32.14c.093.08.14.187.14.32v3.84h5.44v-3.84c0-.133.04-.24.12-.32a.463.463 0 01.34-.14h.94a.4.4 0 01.32.14c.093.08.14.187.14.32v9.48a.464.464 0 01-.14.34.433.433 0 01-.32.12h-.94a.505.505 0 01-.34-.12.505.505 0 01-.12-.34V28.5h-5.44v4.04a.464.464 0 01-.14.34.433.433 0 01-.32.12h-.96zm15.987.2c-1.466 0-2.606-.413-3.42-1.24-.8-.827-1.226-1.927-1.28-3.3l-.02-.86.02-.86c.054-1.36.487-2.453 1.3-3.28.814-.84 1.947-1.26 3.4-1.26 1.454 0 2.587.42 3.4 1.26.814.827 1.247 1.92 1.3 3.28.014.147.02.433.02.86s-.006.713-.02.86c-.053 1.373-.486 2.473-1.3 3.3-.8.827-1.933 1.24-3.4 1.24zm0-1.54c.84 0 1.5-.267 1.98-.8.494-.533.76-1.3.8-2.3.014-.133.02-.387.02-.76s-.006-.627-.02-.76c-.04-1-.306-1.767-.8-2.3-.48-.533-1.14-.8-1.98-.8-.84 0-1.506.267-2 .8-.493.533-.753 1.3-.78 2.3l-.02.76.02.76c.027 1 .287 1.767.78 2.3.494.533 1.16.8 2 .8zm17.465-9.06c.106 0 .2.04.28.12.08.067.12.153.12.26v9.58c0 .133-.04.24-.12.32-.08.08-.18.12-.3.12h-.98a.431.431 0 01-.32-.12.433.433 0 01-.12-.32v-6.58l-2.56 4.84a1.754 1.754 0 01-.28.4c-.08.08-.207.12-.38.12h-.52a.564.564 0 01-.38-.12 1.95 1.95 0 01-.28-.4l-2.54-4.72v6.46c0 .133-.04.24-.12.32a.433.433 0 01-.32.12h-.98a.431.431 0 01-.32-.12.433.433 0 01-.12-.32v-9.58c0-.093.04-.18.12-.26.08-.08.173-.12.28-.12h1.02c.2 0 .366.107.5.32l3.4 6.36 3.42-6.36c.106-.213.273-.32.5-.32h1zm7.553 10.6c-1.374 0-2.474-.42-3.3-1.26-.814-.853-1.26-2.013-1.34-3.48l-.02-.68.02-.66c.093-1.44.546-2.587 1.36-3.44.826-.853 1.913-1.28 3.26-1.28 1.48 0 2.626.473 3.44 1.42.813.933 1.22 2.2 1.22 3.8v.34a.464.464 0 01-.14.34.433.433 0 01-.32.12h-6.92v.18c.04.867.3 1.607.78 2.22.493.6 1.14.9 1.94.9.613 0 1.113-.12 1.5-.36.4-.253.693-.513.88-.78.12-.16.206-.253.26-.28.066-.04.18-.06.34-.06h.98c.12 0 .22.033.3.1.08.067.12.16.12.28 0 .293-.187.647-.56 1.06-.36.413-.874.773-1.54 1.08-.654.293-1.407.44-2.26.44zm2.74-6.16v-.06c0-.92-.254-1.667-.76-2.24-.494-.587-1.16-.88-2-.88-.84 0-1.507.293-2 .88-.48.573-.72 1.32-.72 2.24v.06h5.48zM233.16 33a.505.505 0 01-.34-.12.505.505 0 01-.12-.34V24.2h-3.48a.505.505 0 01-.34-.12.505.505 0 01-.12-.34v-.68c0-.133.04-.24.12-.32a.463.463 0 01.34-.14h8.8a.4.4 0 01.32.14c.093.08.14.187.14.32v.68a.464.464 0 01-.14.34.433.433 0 01-.32.12h-3.48v8.34c0 .133-.04.247-.12.34a.433.433 0 01-.32.12h-.94zm7.534 3.8a.465.465 0 01-.34-.14.433.433 0 01-.12-.32V23.06c0-.133.04-.24.12-.32a.465.465 0 01.34-.14h.92a.4.4 0 01.32.14c.094.08.14.187.14.32v.88c.747-1.027 1.84-1.54 3.28-1.54 1.4 0 2.447.44 3.14 1.32.707.88 1.087 2.013 1.14 3.4a8 8 0 01.02.68 8 8 0 01-.02.68c-.053 1.373-.433 2.507-1.14 3.4-.706.88-1.753 1.32-3.14 1.32-1.386 0-2.466-.5-3.24-1.5v4.64c0 .133-.04.24-.12.32a.4.4 0 01-.32.14h-.98zm4.24-5.22c.947 0 1.634-.293 2.06-.88.44-.587.68-1.36.72-2.32a6.05 6.05 0 00.02-.58c0-2.52-.933-3.78-2.8-3.78-.92 0-1.613.307-2.08.92-.453.6-.7 1.32-.74 2.16l-.02.76.02.78c.027.787.28 1.473.76 2.06s1.167.88 2.06.88zm11.497 3.62a.461.461 0 01-.34-.14.433.433 0 01-.12-.32v-2.88c0-.133.04-.24.12-.32a.461.461 0 01.34-.14h.1c.56-.013.98-.48 1.26-1.4.293-.92.44-2.38.44-4.38v-2.56c0-.133.04-.24.12-.32a.461.461 0 01.34-.14h6.38a.4.4 0 01.32.14c.093.08.14.187.14.32v8.3h.94a.4.4 0 01.32.14c.093.08.14.187.14.32v2.92c0 .133-.047.24-.14.32a.4.4 0 01-.32.14h-.94a.461.461 0 01-.34-.14.433.433 0 01-.12-.32V33h-7.24v1.74c0 .133-.047.24-.14.32a.4.4 0 01-.32.14h-.94zm7.24-3.84V24.2h-3.62v1.64c0 2.667-.38 4.52-1.14 5.56l4.76-.04zm4.852 1.64a.463.463 0 01-.34-.14.464.464 0 01-.14-.34v-.74c0-.133.04-.24.12-.32.08-.08.18-.12.3-.12.64-.027 1.113-.48 1.42-1.36.32-.893.48-2.347.48-4.36v-2.56c0-.133.04-.24.12-.32a.463.463 0 01.34-.14h6.36a.4.4 0 01.32.14c.093.08.14.187.14.32v9.48a.464.464 0 01-.14.34.433.433 0 01-.32.12h-.96a.433.433 0 01-.32-.12.505.505 0 01-.12-.34V24.2h-3.6v1.64c0 2.547-.293 4.38-.88 5.5-.587 1.107-1.513 1.66-2.78 1.66zm19.542-10.4a.4.4 0 01.32.14c.093.08.14.187.14.32v9.48a.464.464 0 01-.14.34.433.433 0 01-.32.12h-.96a.503.503 0 01-.34-.12.505.505 0 01-.12-.34v-3.26h-2.14l-2.26 3.42a.878.878 0 01-.22.22.599.599 0 01-.3.08h-.96c-.12 0-.22-.04-.3-.12a.384.384 0 01-.12-.28.53.53 0 01.14-.36l2.24-3.3c-.694-.24-1.214-.62-1.56-1.14-.347-.533-.52-1.173-.52-1.92 0-1.12.326-1.947.98-2.48.666-.533 1.666-.8 3-.8h3.44zm-1.4 1.5h-2.1c-.76 0-1.314.133-1.66.4-.347.267-.52.727-.52 1.38 0 .573.166 1.033.5 1.38.346.347.853.52 1.52.52h2.26V24.1zm12.94 8.9a.506.506 0 01-.34-.12.505.505 0 01-.12-.34V24.2h-3.48a.506.506 0 01-.34-.12.505.505 0 01-.12-.34v-.68c0-.133.04-.24.12-.32a.465.465 0 01.34-.14h8.8a.4.4 0 01.32.14c.094.08.14.187.14.32v.68a.46.46 0 01-.14.34.431.431 0 01-.32.12h-3.48v8.34c0 .133-.04.247-.12.34a.431.431 0 01-.32.12h-.94zm11.215.2c-1.374 0-2.474-.42-3.3-1.26-.814-.853-1.26-2.013-1.34-3.48l-.02-.68.02-.66c.093-1.44.546-2.587 1.36-3.44.826-.853 1.913-1.28 3.26-1.28 1.48 0 2.626.473 3.44 1.42.813.933 1.22 2.2 1.22 3.8v.34a.464.464 0 01-.14.34.433.433 0 01-.32.12h-6.92v.18c.04.867.3 1.607.78 2.22.493.6 1.14.9 1.94.9.613 0 1.113-.12 1.5-.36.4-.253.693-.513.88-.78.12-.16.206-.253.26-.28.066-.04.18-.06.34-.06h.98c.12 0 .22.033.3.1.08.067.12.16.12.28 0 .293-.187.647-.56 1.06-.36.413-.874.773-1.54 1.08-.654.293-1.407.44-2.26.44zm2.74-6.16v-.06c0-.92-.254-1.667-.76-2.24-.494-.587-1.16-.88-2-.88-.84 0-1.507.293-2 .88-.48.573-.72 1.32-.72 2.24v.06h5.48zm3.811 5.96a.452.452 0 01-.3-.12.407.407 0 01-.12-.3c0-.12.047-.24.14-.36l3.48-4.54-3.26-4.3a.534.534 0 01-.14-.36.407.407 0 01.42-.42h1.02c.2 0 .373.107.52.32l2.66 3.46 2.66-3.44c.08-.107.153-.187.22-.24.08-.067.18-.1.3-.1h.98a.407.407 0 01.42.42.534.534 0 01-.14.36l-3.3 4.34 3.48 4.5c.093.12.14.24.14.36a.407.407 0 01-.42.42h-1.06c-.2 0-.373-.1-.52-.3l-2.8-3.66-2.84 3.66a1.2 1.2 0 01-.24.22.438.438 0 01-.28.08h-1.02zm11.121 1.5a.324.324 0 01-.26-.12.442.442 0 01-.06-.3l.46-2.86c.054-.387.24-.58.56-.58h1.34c.094 0 .167.033.22.1.067.067.1.147.1.24 0 .067-.02.173-.06.32l-1.06 2.74a.873.873 0 01-.22.34c-.08.08-.2.12-.36.12h-.66zm18.703-2.08c.067.08.1.167.1.26s-.04.173-.12.24a.438.438 0 01-.28.08h-1.22c-.213 0-.387-.1-.52-.3l-2.9-4.18h-1.88v4.02a.464.464 0 01-.14.34.433.433 0 01-.32.12h-.94a.505.505 0 01-.34-.12.505.505 0 01-.12-.34v-9.48c0-.133.04-.24.12-.32a.463.463 0 01.34-.14h.94a.4.4 0 01.32.14c.093.08.14.187.14.32v3.84h1.84l2.68-4c.16-.2.34-.3.54-.3h1.04c.12 0 .22.033.3.1a.25.25 0 01.12.22c0 .067-.033.147-.1.24l-2.98 4.42 3.38 4.84zm5.223.58a.503.503 0 01-.34-.12.505.505 0 01-.12-.34V24.2h-3.48a.503.503 0 01-.34-.12.505.505 0 01-.12-.34v-.68c0-.133.04-.24.12-.32a.461.461 0 01.34-.14h8.8a.4.4 0 01.32.14c.093.08.14.187.14.32v.68a.464.464 0 01-.14.34.433.433 0 01-.32.12h-3.48v8.34c0 .133-.04.247-.12.34a.433.433 0 01-.32.12h-.94zm11.314.2c-1.466 0-2.606-.413-3.42-1.24-.8-.827-1.226-1.927-1.28-3.3l-.02-.86.02-.86c.054-1.36.487-2.453 1.3-3.28.814-.84 1.947-1.26 3.4-1.26 1.454 0 2.587.42 3.4 1.26.814.827 1.247 1.92 1.3 3.28.014.147.02.433.02.86s-.006.713-.02.86c-.053 1.373-.486 2.473-1.3 3.3-.8.827-1.933 1.24-3.4 1.24zm0-1.54c.84 0 1.5-.267 1.98-.8.494-.533.76-1.3.8-2.3.014-.133.02-.387.02-.76s-.006-.627-.02-.76c-.04-1-.306-1.767-.8-2.3-.48-.533-1.14-.8-1.98-.8-.84 0-1.506.267-2 .8-.493.533-.753 1.3-.78 2.3l-.02.76.02.76c.027 1 .287 1.767.78 2.3.494.533 1.16.8 2 .8zM376.319 33a.505.505 0 01-.34-.12.505.505 0 01-.12-.34v-9.48c0-.133.04-.24.12-.32a.463.463 0 01.34-.14h4.16c1.227 0 2.16.253 2.8.76.653.493.98 1.173.98 2.04 0 .573-.107 1.02-.32 1.34-.213.307-.54.573-.98.8.48.2.853.533 1.12 1 .28.467.42.967.42 1.5 0 .96-.34 1.693-1.02 2.2-.667.507-1.613.76-2.84.76h-4.32zm4.04-5.98c.653 0 1.167-.14 1.54-.42.373-.28.56-.673.56-1.18 0-.493-.18-.84-.54-1.04-.36-.213-.88-.32-1.56-.32h-2.66v2.96h2.66zm.12 4.52c.667 0 1.187-.127 1.56-.38.387-.253.58-.627.58-1.12 0-.533-.173-.92-.52-1.16-.347-.253-.887-.38-1.62-.38h-2.78v3.04h2.78zM395.152 33a.506.506 0 01-.34-.12.505.505 0 01-.12-.34V24.2h-3.48a.506.506 0 01-.34-.12.505.505 0 01-.12-.34v-.68c0-.133.04-.24.12-.32a.465.465 0 01.34-.14h8.8a.4.4 0 01.32.14c.094.08.14.187.14.32v.68a.46.46 0 01-.14.34.431.431 0 01-.32.12h-3.48v8.34c0 .133-.04.247-.12.34a.431.431 0 01-.32.12h-.94zm11.215.2c-1.374 0-2.474-.42-3.3-1.26-.814-.853-1.26-2.013-1.34-3.48l-.02-.68.02-.66c.093-1.44.546-2.587 1.36-3.44.826-.853 1.913-1.28 3.26-1.28 1.48 0 2.626.473 3.44 1.42.813.933 1.22 2.2 1.22 3.8v.34a.464.464 0 01-.14.34.433.433 0 01-.32.12h-6.92v.18c.04.867.3 1.607.78 2.22.493.6 1.14.9 1.94.9.613 0 1.113-.12 1.5-.36.4-.253.693-.513.88-.78.12-.16.206-.253.26-.28.066-.04.18-.06.34-.06h.98c.12 0 .22.033.3.1.08.067.12.16.12.28 0 .293-.187.647-.56 1.06-.36.413-.874.773-1.54 1.08-.654.293-1.407.44-2.26.44zm2.74-6.16v-.06c0-.92-.254-1.667-.76-2.24-.494-.587-1.16-.88-2-.88-.84 0-1.507.293-2 .88-.48.573-.72 1.32-.72 2.24v.06h5.48zm14.531-4.44c.107 0 .2.04.28.12.08.067.12.153.12.26v9.58c0 .133-.04.24-.12.32-.08.08-.18.12-.3.12h-.98a.433.433 0 01-.32-.12.433.433 0 01-.12-.32v-6.58l-2.56 4.84a1.723 1.723 0 01-.28.4c-.08.08-.207.12-.38.12h-.52a.564.564 0 01-.38-.12 1.99 1.99 0 01-.28-.4l-2.54-4.72v6.46c0 .133-.04.24-.12.32a.433.433 0 01-.32.12h-.98a.433.433 0 01-.32-.12.433.433 0 01-.12-.32v-9.58c0-.093.04-.18.12-.26.08-.08.173-.12.28-.12h1.02c.2 0 .367.107.5.32l3.4 6.36 3.42-6.36c.107-.213.273-.32.5-.32h1zm7.553 10.6c-1.374 0-2.474-.42-3.3-1.26-.814-.853-1.26-2.013-1.34-3.48l-.02-.68.02-.66c.093-1.44.546-2.587 1.36-3.44.826-.853 1.913-1.28 3.26-1.28 1.48 0 2.626.473 3.44 1.42.813.933 1.22 2.2 1.22 3.8v.34a.464.464 0 01-.14.34.433.433 0 01-.32.12h-6.92v.18c.04.867.3 1.607.78 2.22.493.6 1.14.9 1.94.9.613 0 1.113-.12 1.5-.36.4-.253.693-.513.88-.78.12-.16.206-.253.26-.28.066-.04.18-.06.34-.06h.98c.12 0 .22.033.3.1.08.067.12.16.12.28 0 .293-.187.647-.56 1.06-.36.413-.874.773-1.54 1.08-.654.293-1.407.44-2.26.44zm2.74-6.16v-.06c0-.92-.254-1.667-.76-2.24-.494-.587-1.16-.88-2-.88-.84 0-1.507.293-2 .88-.48.573-.72 1.32-.72 2.24v.06h5.48z" fill="#fff"/><g opacity=".49" filter="url(#filter0_f_5_50)"><circle cx="26" cy="26" r="15" fill="#005476"/></g><path d="M33.648 19.708a1.79 1.79 0 00-1.315-.282 1.796 1.796 0 00-.64.241 1.73 1.73 0 00-.496.46l-6.693 9.249-4.388-2.9a1.652 1.652 0 00-1.205-.246c-.419.076-.79.31-1.03.651-.24.34-.332.76-.253 1.165.078.406.32.765.672.998l5.883 3.887a1.624 1.624 0 001.252.23 1.747 1.747 0 001.139-.7l7.508-10.38c.268-.37.373-.829.291-1.274a1.701 1.701 0 00-.725-1.1" fill="#fff"/><defs><filter id="filter0_f_5_50" x="0" y="0" width="52" height="52" filterUnits="userSpaceOnUse" color-interpolation-filters="sRGB"><feFlood flood-opacity="0" result="BackgroundImageFix"/><feBlend in="SourceGraphic" in2="BackgroundImageFix" result="shape"/><feGaussianBlur stdDeviation="5.5" result="effect1_foregroundBlur_5_50"/></filter></defs></svg>