<svg width="30" height="30" viewBox="0 0 52 52" fill="none" xmlns="http://www.w3.org/2000/svg"><g opacity=".49" filter="url(#filter0_f_5_42)"><circle cx="30" cy="30" r="15" fill="#005476"/></g><path d="M33.648 19.708a1.79 1.79 0 00-1.315-.282 1.796 1.796 0 00-.64.241 1.73 1.73 0 00-.496.46l-6.693 9.249-4.388-2.9a1.652 1.652 0 00-1.205-.246c-.419.076-.79.31-1.03.651-.24.34-.332.76-.253 1.165.078.406.32.765.672.998l5.883 3.887a1.624 1.624 0 001.252.23 1.747 1.747 0 001.139-.7l7.508-10.38c.268-.37.373-.829.291-1.274a1.701 1.701 0 00-.725-1.1" fill="#fff"/><defs><filter id="filter0_f_5_42" x="0" y="0" width="52" height="52" filterUnits="userSpaceOnUse" color-interpolation-filters="sRGB"><feFlood flood-opacity="0" result="BackgroundImageFix"/><feBlend in="SourceGraphic" in2="BackgroundImageFix" result="shape"/><feGaussianBlur stdDeviation="5.5" result="effect1_foregroundBlur_5_42"/></filter></defs></svg>