<svg width="130" height="130" fill="none" xmlns="http://www.w3.org/2000/svg"><g filter="url(#filter0_f_5_191)"><circle cx="65" cy="65" r="25" fill="#005476"/></g><path fill-rule="evenodd" clip-rule="evenodd" d="M70.289 66.89a7.266 7.266 0 004.036 1.224v.002c.382 0 .763-.03 1.14-.09-.313.426-.658.827-1.032 1.2a10.318 10.318 0 01-7.34 3.04v4.152a14.532 14.532 0 0014.531-14.532l-.033-1.038a7.267 7.267 0 10-11.302 6.041zm-18.684 0a7.266 7.266 0 004.037 1.224v.002c.381 0 .762-.03 1.14-.09-.314.426-.658.827-1.032 1.2a10.318 10.318 0 01-7.341 3.04v4.152a14.532 14.532 0 0014.532-14.532l-.034-1.038a7.266 7.266 0 10-11.302 6.041zm4.011-1.594a4.373 4.373 0 100-8.746 4.373 4.373 0 000 8.746z" fill="#fff"/><defs><filter id="filter0_f_5_191" x="0" y="0" width="130" height="130" filterUnits="userSpaceOnUse" color-interpolation-filters="sRGB"><feFlood flood-opacity="0" result="BackgroundImageFix"/><feBlend in="SourceGraphic" in2="BackgroundImageFix" result="shape"/><feGaussianBlur stdDeviation="20" result="effect1_foregroundBlur_5_191"/></filter></defs></svg>