<svg width="130" height="130" fill="none" xmlns="http://www.w3.org/2000/svg"><g filter="url(#filter0_f_5_67)"><circle cx="65" cy="65" r="25" fill="#005476"/></g><path d="M67.663 66.323L55.531 78.455a2.508 2.508 0 11-3.547-3.546l12.133-12.133" stroke="#fff" stroke-width="2" stroke-linecap="round" stroke-linejoin="round"/><path d="M78.302 61.889a.624.624 0 00-.887 0 1.875 1.875 0 01-3.08-2.014 1.26 1.26 0 00-.28-1.345c-1.032-1.035-2.843-2.845-2.866-2.822a9.148 9.148 0 00-11.761-.5.625.625 0 00.4 1.125 6.858 6.858 0 015.171 2.01c.862.862 1.65 1.898.789 2.76l-1.675 1.673 3.546 3.547 1.774-1.774a1.88 1.88 0 112.659 2.66.624.624 0 000 .886l1.33 1.33a1.25 1.25 0 001.773 0l4.433-4.432a1.25 1.25 0 000-1.774l-1.326-1.33zm.363 1.251l-5.32 5.319m4.07-6.569l-5.32 5.319" stroke="#fff" stroke-width="2" stroke-linecap="round" stroke-linejoin="round"/><defs><filter id="filter0_f_5_67" x="0" y="0" width="130" height="130" filterUnits="userSpaceOnUse" color-interpolation-filters="sRGB"><feFlood flood-opacity="0" result="BackgroundImageFix"/><feBlend in="SourceGraphic" in2="BackgroundImageFix" result="shape"/><feGaussianBlur stdDeviation="20" result="effect1_foregroundBlur_5_67"/></filter></defs></svg>