<svg width="130" height="130" fill="none" xmlns="http://www.w3.org/2000/svg"><g filter="url(#filter0_f_5_77)"><circle cx="65" cy="65" r="25" fill="#005476"/></g><path fill-rule="evenodd" clip-rule="evenodd" d="M52.557 73.75H57.8c.21 0 .41-.087.558-.241a.843.843 0 00.23-.583V67.98h13.679v4.946c0 .218.083.428.23.583a.771.771 0 00.558.241h5.243a.77.77 0 00.557-.241.844.844 0 00.231-.583v-1.162h2.365a.77.77 0 00.558-.242.844.844 0 00.23-.583v-1.013h1.586c.21 0 .41-.087.557-.242a.843.843 0 00.231-.583v-7.187a.843.843 0 00-.23-.583.771.771 0 00-.558-.241H82.24v-1.014a.844.844 0 00-.231-.583.772.772 0 00-.558-.241h-2.365V58.09a.844.844 0 00-.23-.583.772.772 0 00-.558-.241h-5.243a.77.77 0 00-.557.241.843.843 0 00-.231.583v4.945H58.589V58.09a.843.843 0 00-.231-.583.772.772 0 00-.558-.241h-5.243a.77.77 0 00-.557.241.844.844 0 00-.231.583v1.162h-2.365c-.21 0-.41.087-.558.241a.844.844 0 00-.23.583v1.014h-1.578a.77.77 0 00-.557.241.844.844 0 00-.231.583v7.187c0 .219.083.428.23.583a.771.771 0 00.558.242h1.577v1.013c0 .219.083.429.231.583a.772.772 0 00.558.242h2.365v1.162c0 .218.083.428.23.583a.771.771 0 00.558.241zm21.287-6.573v-8.263h3.666v13.188h-3.666v-4.925zm-1.577-2.493H58.589v1.648h13.678v-1.648zm-15.255 7.418h-3.666V58.914h3.666v13.188zm-9.185-3.825h.788v-5.539h-.788v5.54zm34.421 0h.789v-5.539h-.789v5.54z" fill="#fff"/><defs><filter id="filter0_f_5_77" x="0" y="0" width="130" height="130" filterUnits="userSpaceOnUse" color-interpolation-filters="sRGB"><feFlood flood-opacity="0" result="BackgroundImageFix"/><feBlend in="SourceGraphic" in2="BackgroundImageFix" result="shape"/><feGaussianBlur stdDeviation="20" result="effect1_foregroundBlur_5_77"/></filter></defs></svg>