<svg width="130" height="130" fill="none" xmlns="http://www.w3.org/2000/svg"><g filter="url(#filter0_f_5_90)"><circle cx="65" cy="65" r="25" fill="#005476"/></g><path fill-rule="evenodd" clip-rule="evenodd" d="M65.366 49.116a1.25 1.25 0 011.768 0c.475.474 11.616 11.736 11.616 22.134 0 6.893-5.608 12.5-12.5 12.5-6.893 0-12.5-5.607-12.5-12.5 0-10.398 11.142-21.66 11.616-22.134zM56.25 71.25c0 5.514 4.486 10 10 10s10-4.486 10-10c0-7.77-7.405-16.579-10-19.426-2.594 2.85-10 11.667-10 19.426zm5.209 1.444zm6.069 4.768a1.25 1.25 0 01-.097.493 1.25 1.25 0 01-1.181.84c-4.048 0-7.356-3.242-7.495-7.28a1.25 1.25 0 011.207-1.532c4.135-.036 7.53 3.319 7.566 7.479z" fill="#fff"/><defs><filter id="filter0_f_5_90" x="0" y="0" width="130" height="130" filterUnits="userSpaceOnUse" color-interpolation-filters="sRGB"><feFlood flood-opacity="0" result="BackgroundImageFix"/><feBlend in="SourceGraphic" in2="BackgroundImageFix" result="shape"/><feGaussianBlur stdDeviation="20" result="effect1_foregroundBlur_5_90"/></filter></defs></svg>