<svg width="130" height="130" fill="none" xmlns="http://www.w3.org/2000/svg"><g filter="url(#filter0_f_5_108)"><circle cx="65" cy="65" r="25" fill="#005476"/></g><mask id="a" maskUnits="userSpaceOnUse" x="47.75" y="52.92" width="34" height="26" fill="#000"><path fill="#fff" d="M47.75 52.92h34v26h-34z"/><path fill-rule="evenodd" clip-rule="evenodd" d="M57.614 55.102c0 .164-.146.296-.328.296h-2.299c-.181 0-.328-.133-.328-.296v-.886c0-.164.147-.296.328-.296h2.299c.182 0 .328.133.328.296v.886zm16.477 7.966a1.477 1.477 0 11-2.955 0 1.477 1.477 0 012.955 0zM65 72.5a5 5 0 10-.001-10.001A5 5 0 0065 72.5zm-16.25 2.614V60.34c0-2.955 2.955-2.955 2.955-2.955h7.09l1.57-2.613a.781.781 0 01.596-.341h9.555c.213 0 .485.152.597.341l1.569 2.613h5.613s2.955 0 2.955 2.955v14.773c0 2.954-2.955 2.954-2.955 2.954h-26.59s-2.955 0-2.955-2.954zm12.687-19.205l-1.646 2.955h-8.07s-1.494 0-1.494 1.503v14.718c0 1.506 1.494 1.506 1.494 1.506h26.558s1.494 0 1.494-1.506V60.367c0-1.503-1.494-1.503-1.494-1.503H71.77l-1.87-2.955h-8.462z"/></mask><path fill-rule="evenodd" clip-rule="evenodd" d="M57.614 55.102c0 .164-.146.296-.328.296h-2.299c-.181 0-.328-.133-.328-.296v-.886c0-.164.147-.296.328-.296h2.299c.182 0 .328.133.328.296v.886zm16.477 7.966a1.477 1.477 0 11-2.955 0 1.477 1.477 0 012.955 0zM65 72.5a5 5 0 10-.001-10.001A5 5 0 0065 72.5zm-16.25 2.614V60.34c0-2.955 2.955-2.955 2.955-2.955h7.09l1.57-2.613a.781.781 0 01.596-.341h9.555c.213 0 .485.152.597.341l1.569 2.613h5.613s2.955 0 2.955 2.955v14.773c0 2.954-2.955 2.954-2.955 2.954h-26.59s-2.955 0-2.955-2.954zm12.687-19.205l-1.646 2.955h-8.07s-1.494 0-1.494 1.503v14.718c0 1.506 1.494 1.506 1.494 1.506h26.558s1.494 0 1.494-1.506V60.367c0-1.503-1.494-1.503-1.494-1.503H71.77l-1.87-2.955h-8.462z" fill="#fff"/><path d="M51.705 57.386h-.4v.4h.4v-.4zm7.09 0v.4h.227l.116-.194-.343-.206zm1.57-2.613l.342.206v-.001l-.343-.205zm10.748 0l-.344.204.001.002.343-.206zm1.569 2.613l-.343.206.116.194h.227v-.4zm5.613 20.682v-.4.4zm-26.59 0v-.4.4zm8.086-19.204v.4h.235l.115-.206-.35-.194zm1.646-2.955v-.4h-.235l-.115.205.35.195zm10.333 2.955l-.338.214.118.185h.22v-.4zm-1.87-2.955l.338-.214-.118-.186h-.22v.4zm-12.613-.111c.362 0 .728-.272.728-.696h-.8a.12.12 0 01.037-.088.055.055 0 01.035-.016v.8zm-2.299 0h2.299v-.8h-2.299v.8zm-.728-.696c0 .42.365.696.728.696v-.8c.007 0 .021.002.036.016a.12.12 0 01.036.088h-.8zm0-.886v.886h.8v-.886h-.8zm.728-.696c-.362 0-.728.272-.728.696h.8a.12.12 0 01-.036.088.056.056 0 01-.036.016v-.8zm2.299 0h-2.299v.8h2.299v-.8zm.728.696c0-.42-.365-.696-.728-.696v.8a.056.056 0 01-.036-.016.12.12 0 01-.036-.088h.8zm0 .886v-.886h-.8v.886h.8zm14.6 9.843c1.036 0 1.877-.84 1.877-1.877h-.8c0 .595-.482 1.077-1.077 1.077v.8zm-1.877-1.877c0 1.037.84 1.877 1.877 1.877v-.8a1.077 1.077 0 01-1.078-1.077h-.8zm1.877-1.877c-1.037 0-1.877.84-1.877 1.877h.8c0-.595.482-1.077 1.077-1.077v-.8zm1.877 1.877c0-1.037-.84-1.877-1.877-1.877v.8c.595 0 1.077.482 1.077 1.077h.8zM69.6 67.5a4.6 4.6 0 01-4.6 4.6v.8a5.4 5.4 0 005.4-5.4h-.8zM65 62.9a4.6 4.6 0 014.6 4.6h.8a5.4 5.4 0 00-5.4-5.4v.8zm-4.6 4.6a4.6 4.6 0 014.6-4.6v-.8a5.4 5.4 0 00-5.4 5.4h.8zm4.6 4.6a4.6 4.6 0 01-4.6-4.6h-.8a5.4 5.4 0 005.4 5.4v-.8zM48.35 60.34v14.774h.8V60.34h-.8zm3.755-2.954a.807.807 0 00-.4-.4h-.006a.362.362 0 00-.04.001l-.11.006a4.033 4.033 0 00-1.5.405 2.992 2.992 0 00-1.17 1.013c-.326.488-.529 1.121-.529 1.93h.8c0-.669.166-1.144.395-1.486.23-.346.54-.58.861-.742a3.229 3.229 0 011.296-.327h.003-.002a.809.809 0 01-.399-.4h.8zm6.69-.4h-7.09v.8h7.09v-.8zm1.226-2.419l-1.569 2.613.686.412 1.57-2.613-.687-.412zm.94-.535a1.11 1.11 0 00-.538.155 1.12 1.12 0 00-.402.38l.687.411a.339.339 0 01.114-.098.326.326 0 01.14-.048v-.8zm9.555 0h-9.555v.8h9.555v-.8zm.94.537c-.1-.17-.255-.3-.406-.385a1.107 1.107 0 00-.534-.152v.8c.02 0 .073.01.139.047a.33.33 0 01.114.098l.688-.408zm1.569 2.611l-1.57-2.613-.685.412 1.569 2.613.686-.412zm5.27-.194h-5.613v.8h5.613v-.8zm3.355 3.355c0-.809-.203-1.442-.529-1.93a2.993 2.993 0 00-1.17-1.013 4.03 4.03 0 00-1.64-.412h-.015v.8h-.001.019l.079.005a3.231 3.231 0 011.2.322c.322.161.631.396.861.742.229.342.395.817.395 1.486h.8zm0 14.773V60.34h-.8v14.773h.8zm-3.355 2.954v.4h.016a1.977 1.977 0 00.14-.007 4.03 4.03 0 001.5-.405 2.993 2.993 0 001.17-1.012c.326-.489.529-1.122.529-1.93h-.8c0 .668-.166 1.143-.394 1.486-.23.345-.54.58-.862.741a3.231 3.231 0 01-1.279.327h-.021.001v.4zm-26.59.4h26.59v-.8h-26.59v.8zm-3.355-3.354c0 .808.203 1.441.529 1.93.324.485.753.804 1.17 1.013a4.029 4.029 0 001.64.411h.016v-.8h-.019a3.205 3.205 0 01-.376-.04 3.232 3.232 0 01-.903-.287 2.194 2.194 0 01-.861-.741c-.229-.343-.395-.818-.395-1.486h-.8zm11.79-16.056l1.646-2.954-.699-.39-1.645 2.955.699.39zm-8.42.206h8.071v-.8h-8.07v.8zm-1.093 1.103c0-.306.075-.51.167-.648a.914.914 0 01.36-.31 1.428 1.428 0 01.563-.145h.006-.002v-.8h-.031l-.062.004a2.231 2.231 0 00-.834.227c-.234.117-.48.3-.667.582-.188.284-.3.645-.3 1.09h.8zm0 14.718V60.367h-.8v14.718h.8zm1.094 1.506v-.4h-.004l-.032-.002a1.426 1.426 0 01-.531-.143.915.915 0 01-.36-.31c-.092-.14-.167-.344-.167-.65h-.8c0 .445.112.806.3 1.09.186.282.433.466.667.584a2.226 2.226 0 00.916.23h.01v-.4zm26.558-.4H51.721v.8h26.558v-.8zm1.094-1.106c0 .307-.075.511-.167.65a.915.915 0 01-.36.31 1.424 1.424 0 01-.564.146h-.005.001l.001.4v.4h.011a1.699 1.699 0 00.289-.029c.166-.028.394-.085.627-.202a1.72 1.72 0 00.667-.584c.188-.284.3-.645.3-1.09h-.8zm0-14.718v14.718h.8V60.367h-.8zm-1.094-1.503v.4h-.002.005l.033.001c.03.003.076.007.131.017.114.019.26.056.4.127.14.07.266.169.36.31.092.139.167.342.167.648h.8c0-.445-.112-.806-.3-1.09a1.712 1.712 0 00-.667-.583 2.23 2.23 0 00-.897-.23h-.029v.4zm-6.509.4h6.51v-.8h-6.51v.8zm-2.21-3.141l1.872 2.955.676-.428-1.871-2.955-.676.428zm-8.123.186h8.462v-.8h-8.462v.8z" fill="#fff" mask="url(#a)"/><defs><filter id="filter0_f_5_108" x="0" y="0" width="130" height="130" filterUnits="userSpaceOnUse" color-interpolation-filters="sRGB"><feFlood flood-opacity="0" result="BackgroundImageFix"/><feBlend in="SourceGraphic" in2="BackgroundImageFix" result="shape"/><feGaussianBlur stdDeviation="20" result="effect1_foregroundBlur_5_108"/></filter></defs></svg>