<svg width="130" height="130" fill="none" xmlns="http://www.w3.org/2000/svg"><g filter="url(#filter0_f_5_118)"><circle cx="65" cy="65" r="25" fill="#005476"/></g><path fill-rule="evenodd" clip-rule="evenodd" d="M70.504 62.564h6.493a7.049 7.049 0 017.041 7.041v6.941a7.049 7.049 0 01-7.04 7.041H66.74a7.049 7.049 0 01-7.04-7.04v-6.942c0-.362.028-.724.084-1.082H53.29a7.049 7.049 0 01-7.041-7.041V54.54a7.049 7.049 0 017.041-7.041h10.256a7.049 7.049 0 017.04 7.041v6.94c0 .363-.027.725-.083 1.083zm-22.737-8.023v6.94a5.53 5.53 0 005.524 5.524h10.256a5.53 5.53 0 005.523-5.523V54.54a5.53 5.53 0 00-5.523-5.523H53.29a5.53 5.53 0 00-5.523 5.523zm27.95 16.77h1.85a.759.759 0 000-1.518h-4.939v-2.292a.759.759 0 10-1.517 0v2.292h-4.939a.759.759 0 000 1.518h7.96a10 10 0 01-2.266 3.78 10.243 10.243 0 01-1.68-2.376.757.757 0 00-1.433.404.76.76 0 00.08.285 11.76 11.76 0 001.917 2.717c-.645.516-1.343.963-2.081 1.333l-1.033.519a.759.759 0 10.681 1.356l1.033-.518c.898-.45 1.742-1 2.516-1.642a13.29 13.29 0 002.523 1.642l1.032.518a.756.756 0 001.019-.338.76.76 0 00-.338-1.018l-1.032-.519c-.74-.37-1.44-.818-2.087-1.335a11.451 11.451 0 002.734-4.808zm-17.298-18.37c.59 0 1.11.381 1.357.994l3.276 8.103a.759.759 0 11-1.407.569l-1.228-3.038H56.42l-1.228 3.038a.76.76 0 11-1.407-.569l3.275-8.103c.248-.613.768-.993 1.358-.993zm0 1.685l-1.385 3.425h2.77l-1.385-3.425z" fill="#fff"/><defs><filter id="filter0_f_5_118" x="0" y="0" width="130" height="130" filterUnits="userSpaceOnUse" color-interpolation-filters="sRGB"><feFlood flood-opacity="0" result="BackgroundImageFix"/><feBlend in="SourceGraphic" in2="BackgroundImageFix" result="shape"/><feGaussianBlur stdDeviation="20" result="effect1_foregroundBlur_5_118"/></filter></defs></svg>