<svg width="437" height="52" viewBox="0 0 437 52" fill="none" xmlns="http://www.w3.org/2000/svg">
<path d="M53.2 33C53.0667 33 52.9533 32.96 52.86 32.88C52.78 32.7867 52.74 32.6733 52.74 32.54V19.48C52.74 19.3333 52.78 19.22 52.86 19.14C52.9533 19.0467 53.0667 19 53.2 19H61.46C61.5933 19 61.7 19.0467 61.78 19.14C61.8733 19.22 61.92 19.3333 61.92 19.48V20.24C61.92 20.3733 61.88 20.4867 61.8 20.58C61.72 20.66 61.6067 20.7 61.46 20.7H54.66V25.08H61.02C61.1533 25.08 61.26 25.1267 61.34 25.22C61.4333 25.3 61.48 25.4133 61.48 25.56V26.3C61.48 26.4333 61.4333 26.5467 61.34 26.64C61.26 26.72 61.1533 26.76 61.02 26.76H54.66V31.3H61.62C61.7667 31.3 61.88 31.34 61.96 31.42C62.04 31.5 62.08 31.6133 62.08 31.76V32.54C62.08 32.6733 62.0333 32.7867 61.94 32.88C61.86 32.96 61.7533 33 61.62 33H53.2ZM68.6917 33.2C67.2651 33.2 66.1451 32.8 65.3317 32C64.5317 31.1867 64.1051 30.0533 64.0517 28.6L64.0317 27.8L64.0517 27C64.1051 25.5467 64.5317 24.42 65.3317 23.62C66.1451 22.8067 67.2651 22.4 68.6917 22.4C69.6517 22.4 70.4651 22.5733 71.1317 22.92C71.7984 23.2667 72.2917 23.6933 72.6117 24.2C72.9451 24.7067 73.1251 25.2133 73.1517 25.72C73.1651 25.8533 73.1251 25.96 73.0317 26.04C72.9384 26.12 72.8251 26.16 72.6917 26.16H71.7317C71.5984 26.16 71.4984 26.1333 71.4317 26.08C71.3651 26.0267 71.2984 25.92 71.2317 25.76C71.0051 25.12 70.6851 24.6667 70.2717 24.4C69.8584 24.12 69.3384 23.98 68.7117 23.98C67.8851 23.98 67.2251 24.24 66.7317 24.76C66.2517 25.2667 65.9917 26.0467 65.9517 27.1L65.9317 27.82L65.9517 28.5C65.9917 29.5667 66.2517 30.3533 66.7317 30.86C67.2117 31.3667 67.8717 31.62 68.7117 31.62C69.3384 31.62 69.8584 31.4867 70.2717 31.22C70.6851 30.94 71.0051 30.48 71.2317 29.84C71.2984 29.68 71.3651 29.5733 71.4317 29.52C71.4984 29.4533 71.5984 29.42 71.7317 29.42H72.6917C72.8251 29.42 72.9384 29.4667 73.0317 29.56C73.1251 29.64 73.1651 29.7467 73.1517 29.88C73.1251 30.3733 72.9451 30.88 72.6117 31.4C72.2917 31.9067 71.7984 32.3333 71.1317 32.68C70.4784 33.0267 69.6651 33.2 68.6917 33.2ZM78.7069 33C78.5735 33 78.4602 32.96 78.3669 32.88C78.2869 32.7867 78.2469 32.6733 78.2469 32.54V24.2H74.7669C74.6335 24.2 74.5202 24.16 74.4269 24.08C74.3469 23.9867 74.3069 23.8733 74.3069 23.74V23.06C74.3069 22.9267 74.3469 22.82 74.4269 22.74C74.5202 22.6467 74.6335 22.6 74.7669 22.6H83.5669C83.7002 22.6 83.8069 22.6467 83.8869 22.74C83.9802 22.82 84.0269 22.9267 84.0269 23.06V23.74C84.0269 23.8733 83.9802 23.9867 83.8869 24.08C83.8069 24.16 83.7002 24.2 83.5669 24.2H80.0869V32.54C80.0869 32.6733 80.0469 32.7867 79.9669 32.88C79.8869 32.96 79.7802 33 79.6469 33H78.7069ZM86.2213 33C86.0879 33 85.9746 32.96 85.8813 32.88C85.8013 32.7867 85.7613 32.6733 85.7613 32.54V23.06C85.7613 22.9267 85.8013 22.82 85.8813 22.74C85.9746 22.6467 86.0879 22.6 86.2213 22.6H87.1813C87.3146 22.6 87.4213 22.6467 87.5013 22.74C87.5946 22.82 87.6413 22.9267 87.6413 23.06V26H89.8813C91.2013 26 92.1813 26.3133 92.8213 26.94C93.4746 27.5533 93.8013 28.4267 93.8013 29.56C93.8013 30.7333 93.4546 31.6 92.7613 32.16C92.0813 32.72 91.0413 33 89.6413 33H86.2213ZM89.7213 31.5C90.5346 31.5 91.1213 31.3533 91.4813 31.06C91.8546 30.7667 92.0413 30.2667 92.0413 29.56C92.0413 28.8533 91.8546 28.3333 91.4813 28C91.1213 27.6667 90.5346 27.5 89.7213 27.5H87.6213V31.5H89.7213ZM101.403 33C101.27 33 101.156 32.96 101.063 32.88C100.983 32.7867 100.943 32.6667 100.943 32.52V19.48C100.943 19.3333 100.983 19.22 101.063 19.14C101.156 19.0467 101.27 19 101.403 19H102.443C102.576 19 102.683 19.0467 102.763 19.14C102.856 19.2333 102.903 19.3467 102.903 19.48V29.82L110.363 19.28C110.47 19.0933 110.636 19 110.863 19H111.843C111.976 19 112.083 19.0467 112.163 19.14C112.256 19.22 112.303 19.3333 112.303 19.48V32.54C112.303 32.6733 112.256 32.7867 112.163 32.88C112.083 32.96 111.976 33 111.843 33H110.823C110.69 33 110.576 32.96 110.483 32.88C110.39 32.7867 110.343 32.6733 110.343 32.54V22.28L102.903 32.72C102.796 32.9067 102.63 33 102.403 33H101.403ZM126.027 32.3C126.067 32.3533 126.087 32.4267 126.087 32.52C126.087 32.6533 126.04 32.7667 125.947 32.86C125.867 32.9533 125.76 33 125.627 33H124.487C124.354 33 124.247 32.9733 124.167 32.92C124.1 32.8667 124.034 32.7933 123.967 32.7L120.127 26.8H117.747V32.54C117.747 32.6733 117.7 32.7867 117.607 32.88C117.514 32.96 117.4 33 117.267 33H116.247C116.114 33 116 32.96 115.907 32.88C115.827 32.7867 115.787 32.6733 115.787 32.54V19.48C115.787 19.3333 115.827 19.22 115.907 19.14C116 19.0467 116.114 19 116.247 19H117.267C117.414 19 117.527 19.0467 117.607 19.14C117.7 19.22 117.747 19.3333 117.747 19.48V25L120.027 25.02L123.567 19.32C123.7 19.1067 123.927 19 124.247 19H125.327C125.607 19 125.747 19.1333 125.747 19.4C125.747 19.4667 125.714 19.5533 125.647 19.66L121.807 25.78L126.027 32.3ZM127.508 27.84C127.375 27.84 127.261 27.8 127.168 27.72C127.088 27.6267 127.048 27.5133 127.048 27.38V26.62C127.048 26.4867 127.088 26.38 127.168 26.3C127.261 26.2067 127.375 26.16 127.508 26.16H133.508C133.641 26.16 133.748 26.2067 133.828 26.3C133.921 26.38 133.968 26.4867 133.968 26.62V27.38C133.968 27.5133 133.921 27.6267 133.828 27.72C133.748 27.8 133.641 27.84 133.508 27.84H127.508ZM136.235 35.2C136.102 35.2 135.989 35.1533 135.895 35.06C135.815 34.98 135.775 34.8733 135.775 34.74V31.86C135.775 31.7267 135.815 31.62 135.895 31.54C135.989 31.4467 136.102 31.4 136.235 31.4H136.335C136.895 31.3867 137.315 30.92 137.595 30C137.889 29.08 138.035 27.62 138.035 25.62V23.06C138.035 22.9267 138.075 22.82 138.155 22.74C138.249 22.6467 138.362 22.6 138.495 22.6H144.875C145.009 22.6 145.115 22.6467 145.195 22.74C145.289 22.82 145.335 22.9267 145.335 23.06V31.36H146.275C146.409 31.36 146.515 31.4067 146.595 31.5C146.689 31.58 146.735 31.6867 146.735 31.82V34.74C146.735 34.8733 146.689 34.98 146.595 35.06C146.515 35.1533 146.409 35.2 146.275 35.2H145.335C145.202 35.2 145.089 35.1533 144.995 35.06C144.915 34.98 144.875 34.8733 144.875 34.74V33H137.635V34.74C137.635 34.8733 137.589 34.98 137.495 35.06C137.415 35.1533 137.309 35.2 137.175 35.2H136.235ZM143.475 31.36V24.2H139.855V25.84C139.855 28.5067 139.475 30.36 138.715 31.4L143.475 31.36ZM151.728 33.2C151.074 33.2 150.468 33.0667 149.908 32.8C149.348 32.5333 148.901 32.1733 148.568 31.72C148.248 31.2533 148.088 30.74 148.088 30.18C148.088 29.3 148.448 28.58 149.168 28.02C149.901 27.4467 150.888 27.0733 152.128 26.9L155.108 26.48V25.9C155.108 24.54 154.328 23.86 152.768 23.86C152.181 23.86 151.701 23.9867 151.328 24.24C150.954 24.48 150.674 24.7667 150.488 25.1C150.448 25.22 150.394 25.3067 150.328 25.36C150.274 25.4133 150.194 25.44 150.088 25.44H149.228C149.108 25.44 149.001 25.4 148.908 25.32C148.828 25.2267 148.788 25.12 148.788 25C148.801 24.68 148.948 24.32 149.228 23.92C149.521 23.5067 149.968 23.1533 150.568 22.86C151.168 22.5533 151.908 22.4 152.788 22.4C154.281 22.4 155.354 22.7533 156.008 23.46C156.661 24.1533 156.988 25.02 156.988 26.06V32.54C156.988 32.6733 156.941 32.7867 156.848 32.88C156.768 32.96 156.661 33 156.528 33H155.608C155.474 33 155.361 32.96 155.268 32.88C155.188 32.7867 155.148 32.6733 155.148 32.54V31.68C154.854 32.1067 154.428 32.4667 153.868 32.76C153.308 33.0533 152.594 33.2 151.728 33.2ZM152.148 31.7C153.014 31.7 153.721 31.42 154.268 30.86C154.828 30.2867 155.108 29.4667 155.108 28.4V27.84L152.788 28.18C151.841 28.3133 151.128 28.54 150.648 28.86C150.168 29.1667 149.928 29.56 149.928 30.04C149.928 30.5733 150.148 30.9867 150.588 31.28C151.028 31.56 151.548 31.7 152.148 31.7ZM159.363 33C159.229 33 159.116 32.9533 159.023 32.86C158.929 32.7667 158.883 32.6533 158.883 32.52V31.78C158.883 31.6467 158.923 31.54 159.003 31.46C159.083 31.38 159.183 31.34 159.303 31.34C159.943 31.3133 160.416 30.86 160.723 29.98C161.043 29.0867 161.203 27.6333 161.203 25.62V23.06C161.203 22.9267 161.243 22.82 161.323 22.74C161.416 22.6467 161.529 22.6 161.663 22.6H168.023C168.156 22.6 168.263 22.6467 168.343 22.74C168.436 22.82 168.483 22.9267 168.483 23.06V32.54C168.483 32.6733 168.436 32.7867 168.343 32.88C168.263 32.96 168.156 33 168.023 33H167.063C166.929 33 166.823 32.96 166.743 32.88C166.663 32.7867 166.623 32.6733 166.623 32.54V24.2H163.023V25.84C163.023 28.3867 162.729 30.22 162.143 31.34C161.556 32.4467 160.629 33 159.363 33ZM171.924 33C171.791 33 171.678 32.96 171.584 32.88C171.504 32.7867 171.464 32.6733 171.464 32.54V23.06C171.464 22.9267 171.504 22.82 171.584 22.74C171.678 22.6467 171.791 22.6 171.924 22.6H172.884C173.018 22.6 173.124 22.6467 173.204 22.74C173.298 22.82 173.344 22.9267 173.344 23.06V26H175.584C176.904 26 177.884 26.3133 178.524 26.94C179.178 27.5533 179.504 28.4267 179.504 29.56C179.504 30.7333 179.158 31.6 178.464 32.16C177.784 32.72 176.744 33 175.344 33H171.924ZM175.424 31.5C176.238 31.5 176.824 31.3533 177.184 31.06C177.558 30.7667 177.744 30.2667 177.744 29.56C177.744 28.8533 177.558 28.3333 177.184 28C176.824 27.6667 176.238 27.5 175.424 27.5H173.324V31.5H175.424ZM181.944 33C181.811 33 181.697 32.96 181.604 32.88C181.524 32.7867 181.484 32.6733 181.484 32.54V23.06C181.484 22.9267 181.524 22.82 181.604 22.74C181.697 22.6467 181.811 22.6 181.944 22.6H182.904C183.037 22.6 183.144 22.6467 183.224 22.74C183.317 22.82 183.364 22.9267 183.364 23.06V26.9H188.804V23.06C188.804 22.9267 188.844 22.82 188.924 22.74C189.017 22.6467 189.131 22.6 189.264 22.6H190.204C190.337 22.6 190.444 22.6467 190.524 22.74C190.617 22.82 190.664 22.9267 190.664 23.06V32.54C190.664 32.6733 190.617 32.7867 190.524 32.88C190.444 32.96 190.337 33 190.204 33H189.264C189.131 33 189.017 32.96 188.924 32.88C188.844 32.7867 188.804 32.6733 188.804 32.54V28.5H183.364V32.54C183.364 32.6733 183.317 32.7867 183.224 32.88C183.144 32.96 183.037 33 182.904 33H181.944ZM197.931 33.2C196.465 33.2 195.325 32.7867 194.511 31.96C193.711 31.1333 193.285 30.0333 193.231 28.66L193.211 27.8L193.231 26.94C193.285 25.58 193.718 24.4867 194.531 23.66C195.345 22.82 196.478 22.4 197.931 22.4C199.385 22.4 200.518 22.82 201.331 23.66C202.145 24.4867 202.578 25.58 202.631 26.94C202.645 27.0867 202.651 27.3733 202.651 27.8C202.651 28.2267 202.645 28.5133 202.631 28.66C202.578 30.0333 202.145 31.1333 201.331 31.96C200.531 32.7867 199.398 33.2 197.931 33.2ZM197.931 31.66C198.771 31.66 199.431 31.3933 199.911 30.86C200.405 30.3267 200.671 29.56 200.711 28.56C200.725 28.4267 200.731 28.1733 200.731 27.8C200.731 27.4267 200.725 27.1733 200.711 27.04C200.671 26.04 200.405 25.2733 199.911 24.74C199.431 24.2067 198.771 23.94 197.931 23.94C197.091 23.94 196.425 24.2067 195.931 24.74C195.438 25.2733 195.178 26.04 195.151 27.04L195.131 27.8L195.151 28.56C195.178 29.56 195.438 30.3267 195.931 30.86C196.425 31.3933 197.091 31.66 197.931 31.66ZM215.396 22.6C215.502 22.6 215.596 22.64 215.676 22.72C215.756 22.7867 215.796 22.8733 215.796 22.98V32.56C215.796 32.6933 215.756 32.8 215.676 32.88C215.596 32.96 215.496 33 215.376 33H214.396C214.262 33 214.156 32.96 214.076 32.88C213.996 32.8 213.956 32.6933 213.956 32.56V25.98L211.396 30.82C211.302 30.9933 211.209 31.1267 211.116 31.22C211.036 31.3 210.909 31.34 210.736 31.34H210.216C210.056 31.34 209.929 31.3 209.836 31.22C209.756 31.14 209.662 31.0067 209.556 30.82L207.016 26.1V32.56C207.016 32.6933 206.976 32.8 206.896 32.88C206.816 32.96 206.709 33 206.576 33H205.596C205.462 33 205.356 32.96 205.276 32.88C205.196 32.8 205.156 32.6933 205.156 32.56V22.98C205.156 22.8867 205.196 22.8 205.276 22.72C205.356 22.64 205.449 22.6 205.556 22.6H206.576C206.776 22.6 206.942 22.7067 207.076 22.92L210.476 29.28L213.896 22.92C214.002 22.7067 214.169 22.6 214.396 22.6H215.396ZM222.949 33.2C221.575 33.2 220.475 32.78 219.649 31.94C218.835 31.0867 218.389 29.9267 218.309 28.46L218.289 27.78L218.309 27.12C218.402 25.68 218.855 24.5333 219.669 23.68C220.495 22.8267 221.582 22.4 222.929 22.4C224.409 22.4 225.555 22.8733 226.369 23.82C227.182 24.7533 227.589 26.02 227.589 27.62V27.96C227.589 28.0933 227.542 28.2067 227.449 28.3C227.369 28.38 227.262 28.42 227.129 28.42H220.209V28.6C220.249 29.4667 220.509 30.2067 220.989 30.82C221.482 31.42 222.129 31.72 222.929 31.72C223.542 31.72 224.042 31.6 224.429 31.36C224.829 31.1067 225.122 30.8467 225.309 30.58C225.429 30.42 225.515 30.3267 225.569 30.3C225.635 30.26 225.749 30.24 225.909 30.24H226.889C227.009 30.24 227.109 30.2733 227.189 30.34C227.269 30.4067 227.309 30.5 227.309 30.62C227.309 30.9133 227.122 31.2667 226.749 31.68C226.389 32.0933 225.875 32.4533 225.209 32.76C224.555 33.0533 223.802 33.2 222.949 33.2ZM225.689 27.04V26.98C225.689 26.06 225.435 25.3133 224.929 24.74C224.435 24.1533 223.769 23.86 222.929 23.86C222.089 23.86 221.422 24.1533 220.929 24.74C220.449 25.3133 220.209 26.06 220.209 26.98V27.04H225.689ZM233.16 33C233.027 33 232.913 32.96 232.82 32.88C232.74 32.7867 232.7 32.6733 232.7 32.54V24.2H229.22C229.087 24.2 228.973 24.16 228.88 24.08C228.8 23.9867 228.76 23.8733 228.76 23.74V23.06C228.76 22.9267 228.8 22.82 228.88 22.74C228.973 22.6467 229.087 22.6 229.22 22.6H238.02C238.153 22.6 238.26 22.6467 238.34 22.74C238.433 22.82 238.48 22.9267 238.48 23.06V23.74C238.48 23.8733 238.433 23.9867 238.34 24.08C238.26 24.16 238.153 24.2 238.02 24.2H234.54V32.54C234.54 32.6733 234.5 32.7867 234.42 32.88C234.34 32.96 234.233 33 234.1 33H233.16ZM240.694 36.8C240.561 36.8 240.448 36.7533 240.354 36.66C240.274 36.58 240.234 36.4733 240.234 36.34V23.06C240.234 22.9267 240.274 22.82 240.354 22.74C240.448 22.6467 240.561 22.6 240.694 22.6H241.614C241.748 22.6 241.854 22.6467 241.934 22.74C242.028 22.82 242.074 22.9267 242.074 23.06V23.94C242.821 22.9133 243.914 22.4 245.354 22.4C246.754 22.4 247.801 22.84 248.494 23.72C249.201 24.6 249.581 25.7333 249.634 27.12C249.648 27.2667 249.654 27.4933 249.654 27.8C249.654 28.1067 249.648 28.3333 249.634 28.48C249.581 29.8533 249.201 30.9867 248.494 31.88C247.788 32.76 246.741 33.2 245.354 33.2C243.968 33.2 242.888 32.7 242.114 31.7V36.34C242.114 36.4733 242.074 36.58 241.994 36.66C241.914 36.7533 241.808 36.8 241.674 36.8H240.694ZM244.934 31.58C245.881 31.58 246.568 31.2867 246.994 30.7C247.434 30.1133 247.674 29.34 247.714 28.38C247.728 28.2467 247.734 28.0533 247.734 27.8C247.734 25.28 246.801 24.02 244.934 24.02C244.014 24.02 243.321 24.3267 242.854 24.94C242.401 25.54 242.154 26.26 242.114 27.1L242.094 27.86L242.114 28.64C242.141 29.4267 242.394 30.1133 242.874 30.7C243.354 31.2867 244.041 31.58 244.934 31.58ZM256.431 35.2C256.297 35.2 256.184 35.1533 256.091 35.06C256.011 34.98 255.971 34.8733 255.971 34.74V31.86C255.971 31.7267 256.011 31.62 256.091 31.54C256.184 31.4467 256.297 31.4 256.431 31.4H256.531C257.091 31.3867 257.511 30.92 257.791 30C258.084 29.08 258.231 27.62 258.231 25.62V23.06C258.231 22.9267 258.271 22.82 258.351 22.74C258.444 22.6467 258.557 22.6 258.691 22.6H265.071C265.204 22.6 265.311 22.6467 265.391 22.74C265.484 22.82 265.531 22.9267 265.531 23.06V31.36H266.471C266.604 31.36 266.711 31.4067 266.791 31.5C266.884 31.58 266.931 31.6867 266.931 31.82V34.74C266.931 34.8733 266.884 34.98 266.791 35.06C266.711 35.1533 266.604 35.2 266.471 35.2H265.531C265.397 35.2 265.284 35.1533 265.191 35.06C265.111 34.98 265.071 34.8733 265.071 34.74V33H257.831V34.74C257.831 34.8733 257.784 34.98 257.691 35.06C257.611 35.1533 257.504 35.2 257.371 35.2H256.431ZM263.671 31.36V24.2H260.051V25.84C260.051 28.5067 259.671 30.36 258.911 31.4L263.671 31.36ZM268.523 33C268.39 33 268.276 32.9533 268.183 32.86C268.09 32.7667 268.043 32.6533 268.043 32.52V31.78C268.043 31.6467 268.083 31.54 268.163 31.46C268.243 31.38 268.343 31.34 268.463 31.34C269.103 31.3133 269.576 30.86 269.883 29.98C270.203 29.0867 270.363 27.6333 270.363 25.62V23.06C270.363 22.9267 270.403 22.82 270.483 22.74C270.576 22.6467 270.69 22.6 270.823 22.6H277.183C277.316 22.6 277.423 22.6467 277.503 22.74C277.596 22.82 277.643 22.9267 277.643 23.06V32.54C277.643 32.6733 277.596 32.7867 277.503 32.88C277.423 32.96 277.316 33 277.183 33H276.223C276.09 33 275.983 32.96 275.903 32.88C275.823 32.7867 275.783 32.6733 275.783 32.54V24.2H272.183V25.84C272.183 28.3867 271.89 30.22 271.303 31.34C270.716 32.4467 269.79 33 268.523 33ZM288.065 22.6C288.198 22.6 288.305 22.6467 288.385 22.74C288.478 22.82 288.525 22.9267 288.525 23.06V32.54C288.525 32.6733 288.478 32.7867 288.385 32.88C288.305 32.96 288.198 33 288.065 33H287.105C286.971 33 286.858 32.96 286.765 32.88C286.685 32.7867 286.645 32.6733 286.645 32.54V29.28H284.505L282.245 32.7C282.191 32.78 282.118 32.8533 282.025 32.92C281.931 32.9733 281.831 33 281.725 33H280.765C280.645 33 280.545 32.96 280.465 32.88C280.385 32.8 280.345 32.7067 280.345 32.6C280.345 32.4667 280.391 32.3467 280.485 32.24L282.725 28.94C282.031 28.7 281.511 28.32 281.165 27.8C280.818 27.2667 280.645 26.6267 280.645 25.88C280.645 24.76 280.971 23.9333 281.625 23.4C282.291 22.8667 283.291 22.6 284.625 22.6H288.065ZM286.665 24.1H284.565C283.805 24.1 283.251 24.2333 282.905 24.5C282.558 24.7667 282.385 25.2267 282.385 25.88C282.385 26.4533 282.551 26.9133 282.885 27.26C283.231 27.6067 283.738 27.78 284.405 27.78H286.665V24.1ZM299.605 33C299.472 33 299.359 32.96 299.265 32.88C299.185 32.7867 299.145 32.6733 299.145 32.54V24.2H295.665C295.532 24.2 295.419 24.16 295.325 24.08C295.245 23.9867 295.205 23.8733 295.205 23.74V23.06C295.205 22.9267 295.245 22.82 295.325 22.74C295.419 22.6467 295.532 22.6 295.665 22.6H304.465C304.599 22.6 304.705 22.6467 304.785 22.74C304.879 22.82 304.925 22.9267 304.925 23.06V23.74C304.925 23.8733 304.879 23.9867 304.785 24.08C304.705 24.16 304.599 24.2 304.465 24.2H300.985V32.54C300.985 32.6733 300.945 32.7867 300.865 32.88C300.785 32.96 300.679 33 300.545 33H299.605ZM310.82 33.2C309.446 33.2 308.346 32.78 307.52 31.94C306.706 31.0867 306.26 29.9267 306.18 28.46L306.16 27.78L306.18 27.12C306.273 25.68 306.726 24.5333 307.54 23.68C308.366 22.8267 309.453 22.4 310.8 22.4C312.28 22.4 313.426 22.8733 314.24 23.82C315.053 24.7533 315.46 26.02 315.46 27.62V27.96C315.46 28.0933 315.413 28.2067 315.32 28.3C315.24 28.38 315.133 28.42 315 28.42H308.08V28.6C308.12 29.4667 308.38 30.2067 308.86 30.82C309.353 31.42 310 31.72 310.8 31.72C311.413 31.72 311.913 31.6 312.3 31.36C312.7 31.1067 312.993 30.8467 313.18 30.58C313.3 30.42 313.386 30.3267 313.44 30.3C313.506 30.26 313.62 30.24 313.78 30.24H314.76C314.88 30.24 314.98 30.2733 315.06 30.34C315.14 30.4067 315.18 30.5 315.18 30.62C315.18 30.9133 314.993 31.2667 314.62 31.68C314.26 32.0933 313.746 32.4533 313.08 32.76C312.426 33.0533 311.673 33.2 310.82 33.2ZM313.56 27.04V26.98C313.56 26.06 313.306 25.3133 312.8 24.74C312.306 24.1533 311.64 23.86 310.8 23.86C309.96 23.86 309.293 24.1533 308.8 24.74C308.32 25.3133 308.08 26.06 308.08 26.98V27.04H313.56ZM317.371 33C317.264 33 317.164 32.96 317.071 32.88C316.991 32.8 316.951 32.7 316.951 32.58C316.951 32.46 316.998 32.34 317.091 32.22L320.571 27.68L317.311 23.38C317.218 23.2733 317.171 23.1533 317.171 23.02C317.171 22.9 317.211 22.8 317.291 22.72C317.371 22.64 317.471 22.6 317.591 22.6H318.611C318.811 22.6 318.984 22.7067 319.131 22.92L321.791 26.38L324.451 22.94C324.531 22.8333 324.604 22.7533 324.671 22.7C324.751 22.6333 324.851 22.6 324.971 22.6H325.951C326.071 22.6 326.171 22.64 326.251 22.72C326.331 22.8 326.371 22.9 326.371 23.02C326.371 23.1533 326.324 23.2733 326.231 23.38L322.931 27.72L326.411 32.22C326.504 32.34 326.551 32.46 326.551 32.58C326.551 32.7 326.511 32.8 326.431 32.88C326.351 32.96 326.251 33 326.131 33H325.071C324.871 33 324.698 32.9 324.551 32.7L321.751 29.04L318.911 32.7C318.831 32.7933 318.751 32.8667 318.671 32.92C318.604 32.9733 318.511 33 318.391 33H317.371ZM328.492 34.5C328.386 34.5 328.299 34.46 328.232 34.38C328.179 34.3 328.159 34.2 328.172 34.08L328.632 31.22C328.686 30.8333 328.872 30.64 329.192 30.64H330.532C330.626 30.64 330.699 30.6733 330.752 30.74C330.819 30.8067 330.852 30.8867 330.852 30.98C330.852 31.0467 330.832 31.1533 330.792 31.3L329.732 34.04C329.666 34.2 329.592 34.3133 329.512 34.38C329.432 34.46 329.312 34.5 329.152 34.5H328.492ZM347.195 32.42C347.262 32.5 347.295 32.5867 347.295 32.68C347.295 32.7733 347.255 32.8533 347.175 32.92C347.108 32.9733 347.015 33 346.895 33H345.675C345.462 33 345.288 32.9 345.155 32.7L342.255 28.52H340.375V32.54C340.375 32.6733 340.328 32.7867 340.235 32.88C340.155 32.96 340.048 33 339.915 33H338.975C338.842 33 338.728 32.96 338.635 32.88C338.555 32.7867 338.515 32.6733 338.515 32.54V23.06C338.515 22.9267 338.555 22.82 338.635 22.74C338.728 22.6467 338.842 22.6 338.975 22.6H339.915C340.048 22.6 340.155 22.6467 340.235 22.74C340.328 22.82 340.375 22.9267 340.375 23.06V26.9H342.215L344.895 22.9C345.055 22.7 345.235 22.6 345.435 22.6H346.475C346.595 22.6 346.695 22.6333 346.775 22.7C346.855 22.7533 346.895 22.8267 346.895 22.92C346.895 22.9867 346.862 23.0667 346.795 23.16L343.815 27.58L347.195 32.42ZM352.418 33C352.284 33 352.171 32.96 352.078 32.88C351.998 32.7867 351.958 32.6733 351.958 32.54V24.2H348.478C348.344 24.2 348.231 24.16 348.138 24.08C348.058 23.9867 348.018 23.8733 348.018 23.74V23.06C348.018 22.9267 348.058 22.82 348.138 22.74C348.231 22.6467 348.344 22.6 348.478 22.6H357.278C357.411 22.6 357.518 22.6467 357.598 22.74C357.691 22.82 357.738 22.9267 357.738 23.06V23.74C357.738 23.8733 357.691 23.9867 357.598 24.08C357.518 24.16 357.411 24.2 357.278 24.2H353.798V32.54C353.798 32.6733 353.758 32.7867 353.678 32.88C353.598 32.96 353.491 33 353.358 33H352.418ZM363.732 33.2C362.266 33.2 361.126 32.7867 360.312 31.96C359.512 31.1333 359.086 30.0333 359.032 28.66L359.012 27.8L359.032 26.94C359.086 25.58 359.519 24.4867 360.332 23.66C361.146 22.82 362.279 22.4 363.732 22.4C365.186 22.4 366.319 22.82 367.132 23.66C367.946 24.4867 368.379 25.58 368.432 26.94C368.446 27.0867 368.452 27.3733 368.452 27.8C368.452 28.2267 368.446 28.5133 368.432 28.66C368.379 30.0333 367.946 31.1333 367.132 31.96C366.332 32.7867 365.199 33.2 363.732 33.2ZM363.732 31.66C364.572 31.66 365.232 31.3933 365.712 30.86C366.206 30.3267 366.472 29.56 366.512 28.56C366.526 28.4267 366.532 28.1733 366.532 27.8C366.532 27.4267 366.526 27.1733 366.512 27.04C366.472 26.04 366.206 25.2733 365.712 24.74C365.232 24.2067 364.572 23.94 363.732 23.94C362.892 23.94 362.226 24.2067 361.732 24.74C361.239 25.2733 360.979 26.04 360.952 27.04L360.932 27.8L360.952 28.56C360.979 29.56 361.239 30.3267 361.732 30.86C362.226 31.3933 362.892 31.66 363.732 31.66ZM376.319 33C376.186 33 376.072 32.96 375.979 32.88C375.899 32.7867 375.859 32.6733 375.859 32.54V23.06C375.859 22.9267 375.899 22.82 375.979 22.74C376.072 22.6467 376.186 22.6 376.319 22.6H380.479C381.706 22.6 382.639 22.8533 383.279 23.36C383.932 23.8533 384.259 24.5333 384.259 25.4C384.259 25.9733 384.152 26.42 383.939 26.74C383.726 27.0467 383.399 27.3133 382.959 27.54C383.439 27.74 383.812 28.0733 384.079 28.54C384.359 29.0067 384.499 29.5067 384.499 30.04C384.499 31 384.159 31.7333 383.479 32.24C382.812 32.7467 381.866 33 380.639 33H376.319ZM380.359 27.02C381.012 27.02 381.526 26.88 381.899 26.6C382.272 26.32 382.459 25.9267 382.459 25.42C382.459 24.9267 382.279 24.58 381.919 24.38C381.559 24.1667 381.039 24.06 380.359 24.06H377.699V27.02H380.359ZM380.479 31.54C381.146 31.54 381.666 31.4133 382.039 31.16C382.426 30.9067 382.619 30.5333 382.619 30.04C382.619 29.5067 382.446 29.12 382.099 28.88C381.752 28.6267 381.212 28.5 380.479 28.5H377.699V31.54H380.479ZM395.152 33C395.019 33 394.906 32.96 394.812 32.88C394.732 32.7867 394.692 32.6733 394.692 32.54V24.2H391.212C391.079 24.2 390.966 24.16 390.872 24.08C390.792 23.9867 390.752 23.8733 390.752 23.74V23.06C390.752 22.9267 390.792 22.82 390.872 22.74C390.966 22.6467 391.079 22.6 391.212 22.6H400.012C400.146 22.6 400.252 22.6467 400.332 22.74C400.426 22.82 400.472 22.9267 400.472 23.06V23.74C400.472 23.8733 400.426 23.9867 400.332 24.08C400.252 24.16 400.146 24.2 400.012 24.2H396.532V32.54C396.532 32.6733 396.492 32.7867 396.412 32.88C396.332 32.96 396.226 33 396.092 33H395.152ZM406.367 33.2C404.993 33.2 403.893 32.78 403.067 31.94C402.253 31.0867 401.807 29.9267 401.727 28.46L401.707 27.78L401.727 27.12C401.82 25.68 402.273 24.5333 403.087 23.68C403.913 22.8267 405 22.4 406.347 22.4C407.827 22.4 408.973 22.8733 409.787 23.82C410.6 24.7533 411.007 26.02 411.007 27.62V27.96C411.007 28.0933 410.96 28.2067 410.867 28.3C410.787 28.38 410.68 28.42 410.547 28.42H403.627V28.6C403.667 29.4667 403.927 30.2067 404.407 30.82C404.9 31.42 405.547 31.72 406.347 31.72C406.96 31.72 407.46 31.6 407.847 31.36C408.247 31.1067 408.54 30.8467 408.727 30.58C408.847 30.42 408.933 30.3267 408.987 30.3C409.053 30.26 409.167 30.24 409.327 30.24H410.307C410.427 30.24 410.527 30.2733 410.607 30.34C410.687 30.4067 410.727 30.5 410.727 30.62C410.727 30.9133 410.54 31.2667 410.167 31.68C409.807 32.0933 409.293 32.4533 408.627 32.76C407.973 33.0533 407.22 33.2 406.367 33.2ZM409.107 27.04V26.98C409.107 26.06 408.853 25.3133 408.347 24.74C407.853 24.1533 407.187 23.86 406.347 23.86C405.507 23.86 404.84 24.1533 404.347 24.74C403.867 25.3133 403.627 26.06 403.627 26.98V27.04H409.107ZM423.638 22.6C423.745 22.6 423.838 22.64 423.918 22.72C423.998 22.7867 424.038 22.8733 424.038 22.98V32.56C424.038 32.6933 423.998 32.8 423.918 32.88C423.838 32.96 423.738 33 423.618 33H422.638C422.505 33 422.398 32.96 422.318 32.88C422.238 32.8 422.198 32.6933 422.198 32.56V25.98L419.638 30.82C419.545 30.9933 419.451 31.1267 419.358 31.22C419.278 31.3 419.151 31.34 418.978 31.34H418.458C418.298 31.34 418.171 31.3 418.078 31.22C417.998 31.14 417.905 31.0067 417.798 30.82L415.258 26.1V32.56C415.258 32.6933 415.218 32.8 415.138 32.88C415.058 32.96 414.951 33 414.818 33H413.838C413.705 33 413.598 32.96 413.518 32.88C413.438 32.8 413.398 32.6933 413.398 32.56V22.98C413.398 22.8867 413.438 22.8 413.518 22.72C413.598 22.64 413.691 22.6 413.798 22.6H414.818C415.018 22.6 415.185 22.7067 415.318 22.92L418.718 29.28L422.138 22.92C422.245 22.7067 422.411 22.6 422.638 22.6H423.638ZM431.191 33.2C429.817 33.2 428.717 32.78 427.891 31.94C427.077 31.0867 426.631 29.9267 426.551 28.46L426.531 27.78L426.551 27.12C426.644 25.68 427.097 24.5333 427.911 23.68C428.737 22.8267 429.824 22.4 431.171 22.4C432.651 22.4 433.797 22.8733 434.611 23.82C435.424 24.7533 435.831 26.02 435.831 27.62V27.96C435.831 28.0933 435.784 28.2067 435.691 28.3C435.611 28.38 435.504 28.42 435.371 28.42H428.451V28.6C428.491 29.4667 428.751 30.2067 429.231 30.82C429.724 31.42 430.371 31.72 431.171 31.72C431.784 31.72 432.284 31.6 432.671 31.36C433.071 31.1067 433.364 30.8467 433.551 30.58C433.671 30.42 433.757 30.3267 433.811 30.3C433.877 30.26 433.991 30.24 434.151 30.24H435.131C435.251 30.24 435.351 30.2733 435.431 30.34C435.511 30.4067 435.551 30.5 435.551 30.62C435.551 30.9133 435.364 31.2667 434.991 31.68C434.631 32.0933 434.117 32.4533 433.451 32.76C432.797 33.0533 432.044 33.2 431.191 33.2ZM433.931 27.04V26.98C433.931 26.06 433.677 25.3133 433.171 24.74C432.677 24.1533 432.011 23.86 431.171 23.86C430.331 23.86 429.664 24.1533 429.171 24.74C428.691 25.3133 428.451 26.06 428.451 26.98V27.04H433.931Z" fill="white"/>
<g opacity="0.49" filter="url(#filter0_f_5_50)">
<circle cx="26" cy="26" r="15" fill="#005476"/>
</g>
<path d="M33.6485 19.7076C33.459 19.5793 33.2453 19.4884 33.0196 19.4401C32.7938 19.3918 32.5605 19.387 32.3328 19.4259C32.1051 19.4649 31.8876 19.5469 31.6927 19.6672C31.4978 19.7875 31.3293 19.9438 31.1968 20.1272L24.504 29.376L20.1157 26.4754C19.7637 26.2425 19.3306 26.1543 18.9114 26.2304C18.4923 26.3065 18.1216 26.5406 17.8809 26.8812C17.6401 27.2217 17.549 27.6409 17.6277 28.0464C17.7063 28.452 17.9482 28.8107 18.3002 29.0436L24.1825 32.9314C24.3636 33.051 24.5684 33.1332 24.7839 33.1728C24.9994 33.2124 25.221 33.2086 25.4349 33.1615C25.663 33.1229 25.8811 33.0411 26.0765 32.9208C26.2719 32.8006 26.4408 32.6441 26.5736 32.4605L34.0823 22.0811C34.3499 21.7105 34.4545 21.2522 34.3731 20.807C34.2917 20.3618 34.031 19.9661 33.6482 19.7068" fill="white"/>
<defs>
<filter id="filter0_f_5_50" x="0" y="0" width="52" height="52" filterUnits="userSpaceOnUse" color-interpolation-filters="sRGB">
<feFlood flood-opacity="0" result="BackgroundImageFix"/>
<feBlend mode="normal" in="SourceGraphic" in2="BackgroundImageFix" result="shape"/>
<feGaussianBlur stdDeviation="5.5" result="effect1_foregroundBlur_5_50"/>
</filter>
</defs>
</svg>
