<svg width="22" height="22" viewBox="0 0 22 22" fill="none" xmlns="http://www.w3.org/2000/svg">
<path fill-rule="evenodd" clip-rule="evenodd" d="M3.45976 1.32697C2.87428 0.740878 1.92502 0.740878 1.33954 1.32697C0.754054 1.91306 0.754053 2.8633 1.33954 3.44938L9.2555 11.3735L1.33954 19.2977C0.754053 19.8838 0.754054 20.834 1.33954 21.4201C1.92502 22.0062 2.87428 22.0062 3.45976 21.4201L11.3757 13.496L19.2894 21.4178C19.8749 22.0039 20.8242 22.0039 21.4096 21.4178C21.9951 20.8318 21.9951 19.8815 21.4096 19.2954L13.4959 11.3735L21.4096 3.45165C21.9951 2.86556 21.9951 1.91532 21.4096 1.32923C20.8242 0.743139 19.8749 0.74314 19.2894 1.32923L11.3757 9.25112L3.45976 1.32697Z" fill="white"/>
</svg>
