<svg width="130" height="130" viewBox="0 0 130 130" fill="none" xmlns="http://www.w3.org/2000/svg">
<g filter="url(#filter0_f_5_191)">
<circle cx="65" cy="65" r="25" fill="#005476"/>
</g>
<path fill-rule="evenodd" clip-rule="evenodd" d="M70.2886 66.8893C71.4835 67.6877 72.8882 68.1138 74.3253 68.1138V68.1159C74.7069 68.1157 75.088 68.0858 75.465 68.0266C75.1521 68.4522 74.8071 68.8533 74.4333 69.2265C73.4713 70.1931 72.3272 70.9593 71.0672 71.481C69.8072 72.0027 68.4563 72.2694 67.0926 72.2657V76.4177C69.001 76.4177 70.8906 76.0418 72.6537 75.3115C74.4168 74.5812 76.0187 73.5108 77.3681 72.1614C78.7175 70.812 79.7879 69.21 80.5182 67.447C81.2485 65.6839 81.6244 63.7942 81.6244 61.8859L81.5912 60.8479C81.5912 59.4109 81.165 58.0061 80.3667 56.8112C79.5683 55.6163 78.4335 54.6851 77.1058 54.1351C75.7782 53.5852 74.3172 53.4413 72.9078 53.7216C71.4984 54.002 70.2037 54.694 69.1876 55.7102C68.1714 56.7263 67.4794 58.021 67.199 59.4304C66.9187 60.8399 67.0626 62.3008 67.6125 63.6284C68.1624 64.9561 69.0937 66.0909 70.2886 66.8893ZM51.6049 66.8893C52.7998 67.6877 54.2046 68.1138 55.6416 68.1138V68.1159C56.0233 68.1157 56.4043 68.0858 56.7813 68.0266C56.4684 68.4522 56.1235 68.8533 55.7496 69.2265C54.7876 70.1931 53.6435 70.9593 52.3835 71.481C51.1235 72.0027 49.7726 72.2694 48.409 72.2657V76.4177C52.263 76.4177 55.9592 74.8866 58.6845 72.1614C61.4097 69.4362 62.9407 65.74 62.9407 61.8859L62.9075 60.8479C62.9075 59.4109 62.4814 58.0061 61.683 56.8112C60.8846 55.6163 59.7498 54.6851 58.4221 54.1351C57.0945 53.5852 55.6336 53.4413 54.2241 53.7216C52.8147 54.002 51.52 54.694 50.5039 55.7102C49.4877 56.7263 48.7957 58.021 48.5153 59.4304C48.235 60.8399 48.3789 62.3008 48.9288 63.6284C49.4788 64.9561 50.41 66.0909 51.6049 66.8893ZM55.6163 65.2962C58.0315 65.2962 59.9895 63.3383 59.9895 60.9231C59.9895 58.5078 58.0315 56.5499 55.6163 56.5499C53.2011 56.5499 51.2432 58.5078 51.2432 60.9231C51.2432 63.3383 53.2011 65.2962 55.6163 65.2962Z" fill="white"/>
<defs>
<filter id="filter0_f_5_191" x="0" y="0" width="130" height="130" filterUnits="userSpaceOnUse" color-interpolation-filters="sRGB">
<feFlood flood-opacity="0" result="BackgroundImageFix"/>
<feBlend mode="normal" in="SourceGraphic" in2="BackgroundImageFix" result="shape"/>
<feGaussianBlur stdDeviation="20" result="effect1_foregroundBlur_5_191"/>
</filter>
</defs>
</svg>
