<svg width="130" height="130" viewBox="0 0 130 130" fill="none" xmlns="http://www.w3.org/2000/svg">
<g filter="url(#filter0_f_5_67)">
<circle cx="65" cy="65" r="25" fill="#005476"/>
</g>
<path d="M67.6632 66.3226L55.5307 78.4551C55.0604 78.9254 54.4226 79.1896 53.7576 79.1896C53.0925 79.1896 52.4547 78.9254 51.9845 78.4551C51.5142 77.9849 51.25 77.347 51.25 76.682C51.25 76.0169 51.5142 75.3791 51.9845 74.9089L64.117 62.7764" stroke="white" stroke-width="2" stroke-linecap="round" stroke-linejoin="round"/>
<path d="M78.3017 61.8889C78.2436 61.8305 78.1746 61.7842 78.0985 61.7526C78.0225 61.7209 77.9409 61.7047 77.8586 61.7047C77.7762 61.7047 77.6947 61.7209 77.6186 61.7526C77.5426 61.7842 77.4735 61.8305 77.4155 61.8889C77.112 62.2001 76.7099 62.3963 76.2779 62.4438C75.8458 62.4913 75.4107 62.3872 75.0469 62.1493C74.6831 61.9115 74.4132 61.5546 74.2834 61.1398C74.1537 60.725 74.1721 60.2779 74.3355 59.8752C74.4241 59.6479 74.4448 59.3999 74.3951 59.1611C74.3454 58.9223 74.2274 58.7031 74.0555 58.5302C73.023 57.4952 71.2117 55.6852 71.1892 55.7077C69.6012 54.2534 67.5511 53.4059 65.3997 53.3144C63.2483 53.223 61.1337 53.8934 59.428 55.2077C59.3211 55.2876 59.2426 55.3996 59.204 55.5273C59.1654 55.6551 59.1687 55.7918 59.2134 55.9176C59.2581 56.0433 59.3418 56.1514 59.4524 56.2261C59.563 56.3008 59.6946 56.3381 59.828 56.3327C60.7824 56.289 61.7354 56.4452 62.6259 56.7913C63.5165 57.1375 64.3248 57.6659 64.9992 58.3427C65.8605 59.2052 66.6492 60.2414 65.788 61.1027L64.113 62.7764L67.6592 66.3227L69.433 64.5489C69.7857 64.1963 70.264 63.9983 70.7628 63.9984C71.2615 63.9986 71.7398 64.1968 72.0923 64.5495C72.4449 64.9023 72.6429 65.3806 72.6428 65.8793C72.6427 66.3781 72.4444 66.8563 72.0917 67.2089C72.0333 67.267 71.987 67.336 71.9554 67.4121C71.9237 67.4881 71.9075 67.5697 71.9075 67.652C71.9075 67.7344 71.9237 67.8159 71.9554 67.892C71.987 67.968 72.0333 68.0371 72.0917 68.0952L73.4217 69.4252C73.5379 69.5421 73.6761 69.635 73.8283 69.6983C73.9805 69.7617 74.1437 69.7943 74.3086 69.7943C74.4734 69.7943 74.6367 69.7617 74.7889 69.6983C74.9411 69.635 75.0793 69.5421 75.1955 69.4252L79.628 64.9927C79.7449 64.8765 79.8378 64.7383 79.9011 64.5861C79.9645 64.4339 79.9971 64.2706 79.9971 64.1058C79.9971 63.9409 79.9645 63.7777 79.9011 63.6255C79.8378 63.4733 79.7449 63.3351 79.628 63.2189L78.3017 61.8889Z" stroke="white" stroke-width="2" stroke-linecap="round" stroke-linejoin="round"/>
<path d="M78.6652 63.1401L73.3452 68.4589" stroke="white" stroke-width="2" stroke-linecap="round" stroke-linejoin="round"/>
<path d="M77.4152 61.8901L72.0952 67.2089" stroke="white" stroke-width="2" stroke-linecap="round" stroke-linejoin="round"/>
<defs>
<filter id="filter0_f_5_67" x="0" y="0" width="130" height="130" filterUnits="userSpaceOnUse" color-interpolation-filters="sRGB">
<feFlood flood-opacity="0" result="BackgroundImageFix"/>
<feBlend mode="normal" in="SourceGraphic" in2="BackgroundImageFix" result="shape"/>
<feGaussianBlur stdDeviation="20" result="effect1_foregroundBlur_5_67"/>
</filter>
</defs>
</svg>
