<svg width="130" height="130" viewBox="0 0 130 130" fill="none" xmlns="http://www.w3.org/2000/svg">
<g filter="url(#filter0_f_5_77)">
<circle cx="65" cy="65" r="25" fill="#005476"/>
</g>
<path fill-rule="evenodd" clip-rule="evenodd" d="M52.5574 73.75H57.8001C58.0092 73.75 58.2098 73.6632 58.3576 73.5086C58.5055 73.354 58.5885 73.1444 58.5885 72.9258V67.9804H72.2668V72.9258C72.2668 73.1444 72.3498 73.354 72.4977 73.5086C72.6455 73.6632 72.8461 73.75 73.0552 73.75H78.2979C78.507 73.75 78.7075 73.6632 78.8554 73.5086C79.0032 73.354 79.0863 73.1444 79.0863 72.9258V71.7637H81.4515C81.6606 71.7637 81.8611 71.6768 82.009 71.5223C82.1568 71.3677 82.2399 71.158 82.2399 70.9394V69.9255H83.825C84.0341 69.9255 84.2346 69.8387 84.3824 69.6841C84.5303 69.5295 84.6134 69.3199 84.6134 69.1013V61.9141C84.6134 61.6955 84.5303 61.4859 84.3824 61.3313C84.2346 61.1767 84.0341 61.0899 83.825 61.0899H82.2399V60.0762C82.2399 59.8576 82.1568 59.648 82.009 59.4934C81.8611 59.3389 81.6606 59.252 81.4515 59.252H79.0863V58.0898C79.0863 57.8712 79.0032 57.6616 78.8554 57.507C78.7075 57.3525 78.507 57.2656 78.2979 57.2656H73.0552C72.8461 57.2656 72.6455 57.3525 72.4977 57.507C72.3498 57.6616 72.2668 57.8712 72.2668 58.0898V63.0351H58.5885V58.0898C58.5885 57.8712 58.5055 57.6616 58.3576 57.507C58.2098 57.3525 58.0092 57.2656 57.8001 57.2656H52.5574C52.3483 57.2656 52.1478 57.3525 51.9999 57.507C51.8521 57.6616 51.769 57.8712 51.769 58.0898V59.252H49.4037C49.1946 59.252 48.9941 59.3389 48.8462 59.4934C48.6984 59.648 48.6153 59.8576 48.6153 60.0762V61.0899H47.0384C46.8293 61.0899 46.6288 61.1767 46.4809 61.3313C46.3331 61.4859 46.25 61.6955 46.25 61.9141V69.1013C46.25 69.3199 46.3331 69.5295 46.4809 69.6841C46.6288 69.8387 46.8293 69.9255 47.0384 69.9255H48.6153V70.9394C48.6153 71.158 48.6984 71.3677 48.8462 71.5223C48.9941 71.6768 49.1946 71.7637 49.4037 71.7637H51.769V72.9258C51.769 73.1444 51.8521 73.354 51.9999 73.5086C52.1478 73.6632 52.3483 73.75 52.5574 73.75ZM73.8435 67.1771C73.8437 67.1701 73.8438 67.1632 73.8438 67.1562V63.8593C73.8438 63.8524 73.8437 63.8454 73.8435 63.8385V58.9141H77.5095V72.1016H73.8435V67.1771ZM72.2668 64.6836H58.5886V66.332H72.2668V64.6836ZM57.0118 72.1016H53.3458V58.9141H57.0118V72.1016ZM47.8268 68.2771H48.6151V62.7383H47.8268V68.2771ZM82.2482 68.2771H83.0366V62.7383H82.2482V68.2771Z" fill="white"/>
<defs>
<filter id="filter0_f_5_77" x="0" y="0" width="130" height="130" filterUnits="userSpaceOnUse" color-interpolation-filters="sRGB">
<feFlood flood-opacity="0" result="BackgroundImageFix"/>
<feBlend mode="normal" in="SourceGraphic" in2="BackgroundImageFix" result="shape"/>
<feGaussianBlur stdDeviation="20" result="effect1_foregroundBlur_5_77"/>
</filter>
</defs>
</svg>
