<svg width="130" height="130" viewBox="0 0 130 130" fill="none" xmlns="http://www.w3.org/2000/svg">
<g filter="url(#filter0_f_5_90)">
<circle cx="65" cy="65" r="25" fill="#005476"/>
</g>
<path fill-rule="evenodd" clip-rule="evenodd" d="M65.3662 49.1162C65.8545 48.6279 66.6455 48.6279 67.1338 49.1162C67.6086 49.5905 78.75 60.8521 78.75 71.25C78.75 78.1427 73.1421 83.75 66.25 83.75C59.3573 83.75 53.75 78.1427 53.75 71.25C53.75 60.8521 64.892 49.5905 65.3662 49.1162ZM56.25 71.25C56.25 76.7639 60.7361 81.25 66.25 81.25C71.7639 81.25 76.25 76.7639 76.25 71.25C76.25 63.4796 68.8452 54.671 66.2506 51.8237C63.656 54.6735 56.25 63.4906 56.25 71.25ZM61.4587 72.6941C61.4587 72.6939 61.4586 72.6936 61.4585 72.6934C61.4588 72.6935 61.4591 72.6936 61.4594 72.6936C61.4592 72.6938 61.459 72.694 61.4587 72.6941ZM67.5275 77.4616C67.529 77.6364 67.4946 77.8031 67.4311 77.9548C67.2613 78.4436 66.7966 78.7946 66.25 78.7946C62.2023 78.7946 58.8936 75.5527 58.7546 71.5147C58.7345 71.4276 58.7235 71.337 58.7227 71.2439C58.7167 70.5536 59.2714 69.9891 59.9617 69.983C64.0973 69.9468 67.4911 73.3016 67.5275 77.4616Z" fill="white"/>
<defs>
<filter id="filter0_f_5_90" x="0" y="0" width="130" height="130" filterUnits="userSpaceOnUse" color-interpolation-filters="sRGB">
<feFlood flood-opacity="0" result="BackgroundImageFix"/>
<feBlend mode="normal" in="SourceGraphic" in2="BackgroundImageFix" result="shape"/>
<feGaussianBlur stdDeviation="20" result="effect1_foregroundBlur_5_90"/>
</filter>
</defs>
</svg>
