<svg width="130" height="130" viewBox="0 0 130 130" fill="none" xmlns="http://www.w3.org/2000/svg">
<g filter="url(#filter0_f_5_108)">
<circle cx="65" cy="65" r="25" fill="#005476"/>
</g>
<mask id="path-2-outside-1_5_108" maskUnits="userSpaceOnUse" x="47.75" y="52.9204" width="34" height="26" fill="black">
<rect fill="white" x="47.75" y="52.9204" width="34" height="26"/>
<path fill-rule="evenodd" clip-rule="evenodd" d="M57.6139 55.1022C57.6139 55.2661 57.4677 55.3976 57.286 55.3976H54.9873C54.8057 55.3976 54.6594 55.2647 54.6594 55.1022V54.2158C54.6594 54.0519 54.8057 53.9204 54.9873 53.9204H57.286C57.4677 53.9204 57.6139 54.0533 57.6139 54.2158V55.1022ZM74.091 63.0681C74.091 63.884 73.4296 64.5454 72.6137 64.5454C71.7979 64.5454 71.1365 63.884 71.1365 63.0681C71.1365 62.2522 71.7979 61.5909 72.6137 61.5909C73.4296 61.5909 74.091 62.2522 74.091 63.0681ZM65 72.5C67.7611 72.5 70 70.261 70 67.5C70 64.7389 67.7611 62.5 65 62.5C62.2389 62.5 60 64.7389 60 67.5C60 70.261 62.2389 72.5 65 72.5ZM48.75 75.1136V60.3408C48.75 57.3862 51.7045 57.3862 51.7045 57.3863H58.7954L60.3643 54.773C60.4736 54.5898 60.744 54.4317 60.9611 54.4317H70.5161C70.7289 54.4317 71.0007 54.5839 71.1129 54.773L72.6818 57.3863H78.2954C78.2954 57.3863 81.25 57.3863 81.25 60.3408V75.1136C81.25 78.0682 78.2954 78.0682 78.2954 78.0682H51.7045C51.7045 78.0682 48.75 78.0682 48.75 75.1136ZM61.4368 55.9089L59.7911 58.8635H51.7208C51.7208 58.8635 50.2273 58.8635 50.2273 60.3674V75.0854C50.2273 76.5908 51.7208 76.5908 51.7208 76.5908H78.2792C78.2792 76.5908 79.7727 76.5908 79.7727 75.0854V60.3674C79.7727 58.8635 78.2792 58.8635 78.2792 58.8635H71.7703L69.8986 55.9089H61.4368Z"/>
</mask>
<path fill-rule="evenodd" clip-rule="evenodd" d="M57.6139 55.1022C57.6139 55.2661 57.4677 55.3976 57.286 55.3976H54.9873C54.8057 55.3976 54.6594 55.2647 54.6594 55.1022V54.2158C54.6594 54.0519 54.8057 53.9204 54.9873 53.9204H57.286C57.4677 53.9204 57.6139 54.0533 57.6139 54.2158V55.1022ZM74.091 63.0681C74.091 63.884 73.4296 64.5454 72.6137 64.5454C71.7979 64.5454 71.1365 63.884 71.1365 63.0681C71.1365 62.2522 71.7979 61.5909 72.6137 61.5909C73.4296 61.5909 74.091 62.2522 74.091 63.0681ZM65 72.5C67.7611 72.5 70 70.261 70 67.5C70 64.7389 67.7611 62.5 65 62.5C62.2389 62.5 60 64.7389 60 67.5C60 70.261 62.2389 72.5 65 72.5ZM48.75 75.1136V60.3408C48.75 57.3862 51.7045 57.3862 51.7045 57.3863H58.7954L60.3643 54.773C60.4736 54.5898 60.744 54.4317 60.9611 54.4317H70.5161C70.7289 54.4317 71.0007 54.5839 71.1129 54.773L72.6818 57.3863H78.2954C78.2954 57.3863 81.25 57.3863 81.25 60.3408V75.1136C81.25 78.0682 78.2954 78.0682 78.2954 78.0682H51.7045C51.7045 78.0682 48.75 78.0682 48.75 75.1136ZM61.4368 55.9089L59.7911 58.8635H51.7208C51.7208 58.8635 50.2273 58.8635 50.2273 60.3674V75.0854C50.2273 76.5908 51.7208 76.5908 51.7208 76.5908H78.2792C78.2792 76.5908 79.7727 76.5908 79.7727 75.0854V60.3674C79.7727 58.8635 78.2792 58.8635 78.2792 58.8635H71.7703L69.8986 55.9089H61.4368Z" fill="white"/>
<path d="M51.7045 57.3863H51.3045V57.7863H51.7045V57.3863ZM58.7954 57.3863V57.7863H59.0218L59.1384 57.5921L58.7954 57.3863ZM60.3643 54.773L60.7072 54.9789L60.7077 54.978L60.3643 54.773ZM71.1129 54.773L70.769 54.9772L70.77 54.9789L71.1129 54.773ZM72.6818 57.3863L72.3388 57.5921L72.4554 57.7863H72.6818V57.3863ZM78.2954 78.0682V77.6682V78.0682ZM51.7045 78.0682V77.6682H51.7045L51.7045 78.0682ZM59.7911 58.8635V59.2635H60.0262L60.1406 59.0582L59.7911 58.8635ZM61.4368 55.9089V55.5089H61.2017L61.0873 55.7143L61.4368 55.9089ZM71.7703 58.8635L71.4324 59.0776L71.5502 59.2635H71.7703V58.8635ZM69.8986 55.9089L70.2365 55.6949L70.1187 55.5089H69.8986V55.9089ZM57.286 55.7976C57.648 55.7976 58.0139 55.5256 58.0139 55.1022H57.2139C57.2139 55.0601 57.2337 55.0292 57.2505 55.0141C57.2664 54.9998 57.2803 54.9976 57.286 54.9976V55.7976ZM54.9873 55.7976H57.286V54.9976H54.9873V55.7976ZM54.2594 55.1022C54.2594 55.5229 54.624 55.7976 54.9873 55.7976V54.9976C54.9942 54.9976 55.0082 55.0003 55.0234 55.014C55.0391 55.0282 55.0594 55.0588 55.0594 55.1022H54.2594ZM54.2594 54.2158V55.1022H55.0594V54.2158H54.2594ZM54.9873 53.5204C54.6253 53.5204 54.2594 53.7925 54.2594 54.2158H55.0594C55.0594 54.2579 55.0396 54.2889 55.0229 54.3039C55.007 54.3182 54.993 54.3204 54.9873 54.3204V53.5204ZM57.286 53.5204H54.9873V54.3204H57.286V53.5204ZM58.0139 54.2158C58.0139 53.7951 57.6493 53.5204 57.286 53.5204V54.3204C57.2791 54.3204 57.2652 54.3178 57.25 54.304C57.2342 54.2898 57.2139 54.2592 57.2139 54.2158H58.0139ZM58.0139 55.1022V54.2158H57.2139V55.1022H58.0139ZM72.6137 64.9454C73.6505 64.9454 74.491 64.1049 74.491 63.0681H73.691C73.691 63.6631 73.2087 64.1454 72.6137 64.1454V64.9454ZM70.7365 63.0681C70.7365 64.1049 71.577 64.9454 72.6137 64.9454V64.1454C72.0188 64.1454 71.5365 63.6631 71.5365 63.0681H70.7365ZM72.6137 61.1909C71.577 61.1909 70.7365 62.0313 70.7365 63.0681H71.5365C71.5365 62.4732 72.0188 61.9909 72.6137 61.9909V61.1909ZM74.491 63.0681C74.491 62.0313 73.6505 61.1909 72.6137 61.1909V61.9909C73.2087 61.9909 73.691 62.4732 73.691 63.0681H74.491ZM69.6 67.5C69.6 70.0401 67.5402 72.1 65 72.1V72.9C67.982 72.9 70.4 70.482 70.4 67.5H69.6ZM65 62.9C67.5402 62.9 69.6 64.9598 69.6 67.5H70.4C70.4 64.5179 67.982 62.1 65 62.1V62.9ZM60.4 67.5C60.4 64.9598 62.4598 62.9 65 62.9V62.1C62.018 62.1 59.6 64.5179 59.6 67.5H60.4ZM65 72.1C62.4598 72.1 60.4 70.0401 60.4 67.5H59.6C59.6 70.482 62.018 72.9 65 72.9V72.1ZM48.35 60.3408V75.1136H49.15V60.3408H48.35ZM52.1045 57.3863C51.9887 57.1047 51.7071 56.9863 51.7059 56.9863C51.7055 56.9863 51.7048 56.9863 51.7045 56.9863C51.7039 56.9863 51.7034 56.9863 51.7029 56.9863C51.7019 56.9863 51.7007 56.9863 51.6994 56.9863C51.6969 56.9863 51.6936 56.9863 51.6897 56.9864C51.6819 56.9865 51.6713 56.9868 51.6581 56.9872C51.6317 56.9881 51.5949 56.9898 51.5491 56.993C51.4577 56.9996 51.3297 57.0124 51.1771 57.0378C50.8739 57.0884 50.4636 57.1902 50.0484 57.3978C49.6316 57.6061 49.2027 57.925 48.8788 58.4108C48.5533 58.8991 48.35 59.5321 48.35 60.3408H49.15C49.15 59.6721 49.316 59.1972 49.5445 58.8545C49.7746 58.5094 50.0843 58.2742 50.4061 58.1133C50.7296 57.9516 51.0578 57.8687 51.3086 57.827C51.4331 57.8062 51.5359 57.796 51.606 57.791C51.6411 57.7885 51.6677 57.7873 51.6846 57.7868C51.6931 57.7865 51.699 57.7863 51.7024 57.7863C51.7041 57.7863 51.7051 57.7863 51.7053 57.7863C51.7055 57.7863 51.7054 57.7863 51.7051 57.7863C51.705 57.7863 51.7047 57.7863 51.7043 57.7863C51.704 57.7863 51.7034 57.7863 51.7031 57.7863C51.702 57.7863 51.4204 57.6678 51.3045 57.3863H52.1045ZM58.7954 56.9863H51.7045V57.7863H58.7954V56.9863ZM60.0213 54.5671L58.4525 57.1804L59.1384 57.5921L60.7072 54.9789L60.0213 54.5671ZM60.9611 54.0317C60.7636 54.0317 60.573 54.1005 60.4227 54.187C60.2722 54.2737 60.1195 54.4027 60.0208 54.5679L60.7077 54.978C60.7184 54.9601 60.7555 54.9185 60.8219 54.8803C60.8883 54.8421 60.9415 54.8317 60.9611 54.8317V54.0317ZM70.5161 54.0317H60.9611V54.8317H70.5161V54.0317ZM71.4569 54.5688C71.3563 54.3993 71.2014 54.2698 71.0498 54.1836C70.8985 54.0977 70.7095 54.0317 70.5161 54.0317V54.8317C70.5355 54.8317 70.5888 54.8418 70.6546 54.8792C70.7202 54.9165 70.7573 54.9575 70.769 54.9772L71.4569 54.5688ZM73.0247 57.1804L71.4559 54.5671L70.77 54.9789L72.3388 57.5921L73.0247 57.1804ZM78.2954 56.9863H72.6818V57.7863H78.2954V56.9863ZM81.65 60.3408C81.65 59.5322 81.4467 58.8991 81.1212 58.4108C80.7973 57.925 80.3684 57.6062 79.9516 57.3978C79.5364 57.1902 79.126 57.0884 78.8228 57.0379C78.6703 57.0124 78.5423 56.9996 78.4509 56.993C78.4051 56.9898 78.3683 56.9881 78.3419 56.9872C78.3287 56.9868 78.3182 56.9865 78.3103 56.9864C78.3064 56.9863 78.3032 56.9863 78.3007 56.9863C78.2995 56.9863 78.2984 56.9863 78.2975 56.9863C78.2971 56.9863 78.2967 56.9863 78.2963 56.9863C78.2962 56.9863 78.2959 56.9863 78.2958 56.9863C78.2956 56.9863 78.2954 56.9863 78.2954 57.3863C78.2954 57.7863 78.2952 57.7863 78.2951 57.7863C78.295 57.7863 78.2949 57.7863 78.2948 57.7863C78.2946 57.7863 78.2945 57.7863 78.2944 57.7863C78.2942 57.7863 78.2942 57.7863 78.2944 57.7863C78.2947 57.7863 78.2958 57.7863 78.2974 57.7863C78.3008 57.7864 78.3068 57.7865 78.3153 57.7868C78.3322 57.7873 78.3589 57.7885 78.3939 57.791C78.464 57.796 78.5669 57.8062 78.6913 57.827C78.9421 57.8688 79.2704 57.9516 79.5938 58.1133C79.9157 58.2743 80.2254 58.5094 80.4555 58.8546C80.684 59.1973 80.85 59.6721 80.85 60.3408H81.65ZM81.65 75.1136V60.3408H80.85V75.1136H81.65ZM78.2954 78.0682C78.2954 78.4682 78.2956 78.4682 78.2958 78.4682C78.2959 78.4682 78.2962 78.4682 78.2963 78.4682C78.2967 78.4682 78.2971 78.4682 78.2975 78.4681C78.2984 78.4681 78.2995 78.4681 78.3007 78.4681C78.3032 78.4681 78.3064 78.4681 78.3103 78.468C78.3182 78.4679 78.3287 78.4676 78.3419 78.4672C78.3683 78.4663 78.4051 78.4646 78.4509 78.4614C78.5423 78.4548 78.6703 78.442 78.8228 78.4165C79.126 78.366 79.5364 78.2642 79.9516 78.0566C80.3684 77.8482 80.7973 77.5294 81.1212 77.0436C81.4467 76.5553 81.65 75.9222 81.65 75.1136H80.85C80.85 75.7822 80.684 76.2571 80.4555 76.5998C80.2254 76.945 79.9157 77.1801 79.5938 77.3411C79.2704 77.5028 78.9421 77.5856 78.6913 77.6274C78.5669 77.6482 78.464 77.6584 78.3939 77.6634C78.3589 77.6659 78.3322 77.6671 78.3153 77.6677C78.3068 77.6679 78.3008 77.6681 78.2974 77.6681C78.2958 77.6681 78.2947 77.6682 78.2944 77.6682C78.2942 77.6682 78.2942 77.6682 78.2944 77.6682C78.2945 77.6682 78.2946 77.6682 78.2948 77.6682C78.2949 77.6682 78.295 77.6682 78.2951 77.6682C78.2952 77.6682 78.2954 77.6682 78.2954 78.0682ZM51.7045 78.4682H78.2954V77.6682H51.7045V78.4682ZM48.35 75.1136C48.35 75.9222 48.5533 76.5553 48.8788 77.0436C49.2027 77.5294 49.6316 77.8482 50.0484 78.0566C50.4636 78.2642 50.8739 78.366 51.1771 78.4165C51.3297 78.442 51.4577 78.4548 51.5491 78.4614C51.5949 78.4646 51.6317 78.4663 51.658 78.4672C51.6712 78.4676 51.6818 78.4679 51.6896 78.468C51.6935 78.4681 51.6967 78.4681 51.6992 78.4681C51.7005 78.4681 51.7015 78.4681 51.7024 78.4681C51.7029 78.4682 51.7033 78.4682 51.7036 78.4682C51.7038 78.4682 51.704 78.4682 51.7041 78.4682C51.7043 78.4682 51.7045 78.4682 51.7045 78.0682C51.7045 77.6682 51.7047 77.6682 51.7049 77.6682C51.7049 77.6682 51.7051 77.6682 51.7052 77.6682C51.7053 77.6682 51.7055 77.6682 51.7056 77.6682C51.7057 77.6682 51.7057 77.6682 51.7056 77.6682C51.7052 77.6682 51.7042 77.6681 51.7025 77.6681C51.6991 77.6681 51.6931 77.6679 51.6847 77.6677C51.6677 77.6671 51.6411 77.6659 51.6061 77.6634C51.5359 77.6584 51.4331 77.6482 51.3086 77.6274C51.0579 77.5856 50.7296 77.5028 50.4062 77.3411C50.0843 77.1801 49.7746 76.945 49.5445 76.5998C49.316 76.2571 49.15 75.7822 49.15 75.1136H48.35ZM60.1406 59.0582L61.7862 56.1036L61.0873 55.7143L59.4417 58.6689L60.1406 59.0582ZM51.7208 59.2635H59.7911V58.4635H51.7208V59.2635ZM50.6273 60.3674C50.6273 60.0609 50.7023 59.8576 50.7941 59.7188C50.8876 59.5776 51.0149 59.4788 51.1539 59.4088C51.2945 59.338 51.44 59.3006 51.5536 59.2815C51.6095 59.2721 51.6552 59.2676 51.6853 59.2654C51.7003 59.2643 51.7112 59.2639 51.7174 59.2637C51.7205 59.2636 51.7224 59.2635 51.723 59.2635C51.7233 59.2635 51.7233 59.2635 51.7229 59.2635C51.7227 59.2635 51.7224 59.2635 51.7221 59.2635C51.7219 59.2635 51.7217 59.2635 51.7215 59.2635C51.7214 59.2635 51.7212 59.2635 51.7212 59.2635C51.721 59.2635 51.7208 59.2635 51.7208 58.8635C51.7208 58.4635 51.7206 58.4635 51.7204 58.4635C51.7203 58.4635 51.7201 58.4635 51.7199 58.4635C51.7196 58.4635 51.7193 58.4635 51.7189 58.4635C51.7182 58.4635 51.7174 58.4635 51.7165 58.4635C51.7147 58.4636 51.7125 58.4636 51.71 58.4636C51.7049 58.4637 51.6984 58.4639 51.6906 58.4641C51.6749 58.4646 51.6537 58.4656 51.6279 58.4675C51.5764 58.4712 51.5054 58.4784 51.4212 58.4925C51.2548 58.5205 51.0269 58.5771 50.7941 58.6942C50.5598 58.8122 50.3137 58.9953 50.1271 59.2771C49.939 59.5613 49.8273 59.922 49.8273 60.3674H50.6273ZM50.6273 75.0854V60.3674H49.8273V75.0854H50.6273ZM51.7208 76.5908C51.7208 76.1908 51.721 76.1908 51.7212 76.1908C51.7212 76.1908 51.7214 76.1908 51.7215 76.1908C51.7217 76.1908 51.7219 76.1908 51.7221 76.1908C51.7224 76.1908 51.7227 76.1908 51.7229 76.1908C51.7233 76.1908 51.7233 76.1908 51.723 76.1908C51.7224 76.1908 51.7205 76.1908 51.7174 76.1907C51.7113 76.1905 51.7003 76.19 51.6853 76.1889C51.6552 76.1868 51.6095 76.1822 51.5537 76.1728C51.4401 76.1538 51.2947 76.1163 51.154 76.0455C51.0151 75.9754 50.8878 75.8765 50.7943 75.7351C50.7023 75.5961 50.6273 75.3924 50.6273 75.0854H49.8273C49.8273 75.5311 49.9389 75.892 50.127 76.1764C50.3135 76.4584 50.5596 76.6417 50.794 76.7599C51.0268 76.8772 51.2547 76.9338 51.4211 76.9618C51.5053 76.9759 51.5763 76.9832 51.6279 76.9869C51.6537 76.9887 51.6749 76.9897 51.6906 76.9902C51.6984 76.9905 51.7049 76.9907 51.71 76.9907C51.7125 76.9908 51.7147 76.9908 51.7165 76.9908C51.7174 76.9908 51.7182 76.9908 51.7189 76.9908C51.7193 76.9908 51.7196 76.9908 51.7199 76.9908C51.7201 76.9908 51.7203 76.9908 51.7204 76.9908C51.7206 76.9908 51.7208 76.9908 51.7208 76.5908ZM78.2792 76.1908H51.7208V76.9908H78.2792V76.1908ZM79.3727 75.0854C79.3727 75.3924 79.2976 75.5961 79.2057 75.7351C79.1122 75.8765 78.9849 75.9754 78.8459 76.0455C78.7053 76.1163 78.5599 76.1538 78.4463 76.1728C78.3904 76.1822 78.3447 76.1868 78.3146 76.1889C78.2996 76.19 78.2887 76.1905 78.2825 76.1907C78.2794 76.1908 78.2775 76.1908 78.277 76.1908C78.2767 76.1908 78.2767 76.1908 78.2771 76.1908C78.2772 76.1908 78.2775 76.1908 78.2779 76.1908C78.278 76.1908 78.2782 76.1908 78.2784 76.1908C78.2786 76.1908 78.2787 76.1908 78.2788 76.1908C78.279 76.1908 78.2792 76.1908 78.2792 76.5908C78.2792 76.9908 78.2794 76.9908 78.2796 76.9908C78.2797 76.9908 78.2799 76.9908 78.28 76.9908C78.2803 76.9908 78.2807 76.9908 78.281 76.9908C78.2817 76.9908 78.2826 76.9908 78.2835 76.9908C78.2853 76.9908 78.2874 76.9908 78.29 76.9907C78.295 76.9907 78.3015 76.9905 78.3094 76.9902C78.3251 76.9897 78.3462 76.9887 78.3721 76.9869C78.4236 76.9832 78.4946 76.9759 78.5788 76.9618C78.7452 76.9338 78.9732 76.8772 79.206 76.7599C79.4403 76.6417 79.6864 76.4584 79.873 76.1764C80.061 75.892 80.1727 75.5311 80.1727 75.0854H79.3727ZM79.3727 60.3674V75.0854H80.1727V60.3674H79.3727ZM78.2792 58.8635C78.2792 59.2635 78.279 59.2635 78.2788 59.2635C78.2787 59.2635 78.2786 59.2635 78.2785 59.2635C78.2782 59.2635 78.278 59.2635 78.2779 59.2635C78.2775 59.2635 78.2772 59.2635 78.2771 59.2635C78.2767 59.2635 78.2767 59.2635 78.277 59.2635C78.2776 59.2635 78.2794 59.2636 78.2825 59.2637C78.2887 59.2639 78.2997 59.2643 78.3146 59.2654C78.3448 59.2676 78.3905 59.2721 78.4463 59.2815C78.56 59.3006 78.7054 59.338 78.8461 59.4088C78.9851 59.4788 79.1123 59.5776 79.2058 59.7188C79.2977 59.8576 79.3727 60.0609 79.3727 60.3674H80.1727C80.1727 59.922 80.061 59.5613 79.8728 59.2771C79.6863 58.9953 79.4402 58.8122 79.2058 58.6942C78.9731 58.5771 78.7451 58.5205 78.5787 58.4925C78.4946 58.4784 78.4236 58.4712 78.372 58.4675C78.3462 58.4656 78.3251 58.4646 78.3094 58.4641C78.3015 58.4639 78.295 58.4637 78.29 58.4636C78.2874 58.4636 78.2852 58.4636 78.2834 58.4635C78.2826 58.4635 78.2817 58.4635 78.281 58.4635C78.2807 58.4635 78.2803 58.4635 78.28 58.4635C78.2799 58.4635 78.2797 58.4635 78.2796 58.4635C78.2794 58.4635 78.2792 58.4635 78.2792 58.8635ZM71.7703 59.2635H78.2792V58.4635H71.7703V59.2635ZM69.5607 56.123L71.4324 59.0776L72.1082 58.6495L70.2365 55.6949L69.5607 56.123ZM61.4368 56.3089H69.8986V55.5089H61.4368V56.3089Z" fill="white" mask="url(#path-2-outside-1_5_108)"/>
<defs>
<filter id="filter0_f_5_108" x="0" y="0" width="130" height="130" filterUnits="userSpaceOnUse" color-interpolation-filters="sRGB">
<feFlood flood-opacity="0" result="BackgroundImageFix"/>
<feBlend mode="normal" in="SourceGraphic" in2="BackgroundImageFix" result="shape"/>
<feGaussianBlur stdDeviation="20" result="effect1_foregroundBlur_5_108"/>
</filter>
</defs>
</svg>
