<svg width="130" height="130" viewBox="0 0 130 130" fill="none" xmlns="http://www.w3.org/2000/svg">
<g filter="url(#filter0_f_5_118)">
<circle cx="65" cy="65" r="25" fill="#005476"/>
</g>
<path fill-rule="evenodd" clip-rule="evenodd" d="M70.5043 62.5644H76.997C78.8638 62.5665 80.6535 63.309 81.9735 64.629C83.2935 65.9489 84.036 67.7386 84.0381 69.6054V76.5461C84.036 78.4129 83.2935 80.2025 81.9735 81.5225C80.6535 82.8425 78.8638 83.585 76.9971 83.5871H66.7414C64.8746 83.585 63.0849 82.8425 61.765 81.5225C60.445 80.2025 59.7025 78.4129 59.7004 76.5461V69.6054C59.7006 69.2428 59.7291 68.8809 59.7854 68.5227H53.291C51.4243 68.5206 49.6346 67.7781 48.3146 66.4581C46.9946 65.1381 46.2521 63.3485 46.25 61.4817V54.541C46.2521 52.6743 46.9946 50.8846 48.3146 49.5646C49.6346 48.2446 51.4243 47.5021 53.291 47.5H63.5467C65.4134 47.5021 67.2031 48.2446 68.5231 49.5646C69.8431 50.8846 70.5856 52.6743 70.5877 54.541V61.4817C70.5877 61.8442 70.5598 62.2062 70.5043 62.5644ZM47.7675 54.541V61.4817C47.7692 62.9461 48.3516 64.3501 49.3871 65.3856C50.4226 66.4211 51.8266 67.0035 53.291 67.0052H63.5467C65.0111 67.0035 66.415 66.4211 67.4505 65.3856C68.486 64.3501 69.0685 62.9461 69.0701 61.4817V54.541C69.0685 53.0766 68.486 51.6727 67.4505 50.6372C66.415 49.6017 65.0111 49.0192 63.5467 49.0175H53.291C51.8266 49.0192 50.4226 49.6017 49.3871 50.6372C48.3516 51.6726 47.7692 53.0766 47.7675 54.541ZM75.7166 71.3111H77.5661C77.7674 71.3111 77.9604 71.2311 78.1027 71.0888C78.245 70.9465 78.3249 70.7536 78.3249 70.5523C78.3249 70.3511 78.245 70.1581 78.1027 70.0158C77.9604 69.8735 77.7674 69.7935 77.5661 69.7935H72.628V67.5007C72.628 67.2994 72.5481 67.1065 72.4058 66.9642C72.2635 66.8219 72.0705 66.7419 71.8692 66.7419C71.668 66.7419 71.475 66.8219 71.3327 66.9642C71.1904 67.1065 71.1105 67.2994 71.1105 67.5007V69.7935H66.1722C65.971 69.7935 65.778 69.8735 65.6357 70.0158C65.4934 70.1581 65.4135 70.3511 65.4135 70.5523C65.4135 70.7536 65.4934 70.9465 65.6357 71.0888C65.778 71.2311 65.971 71.3111 66.1722 71.3111H74.1323C73.6674 72.7242 72.8932 74.0158 71.866 75.0917C71.1956 74.3834 70.6299 73.583 70.1858 72.7147C70.1406 72.6259 70.0783 72.5469 70.0025 72.4822C69.9268 72.4175 69.839 72.3683 69.7442 72.3376C69.6495 72.3068 69.5496 72.295 69.4502 72.3028C69.3509 72.3106 69.2541 72.3379 69.1653 72.3832C69.0765 72.4284 68.9975 72.4907 68.9328 72.5665C68.8681 72.6422 68.8189 72.73 68.7881 72.8248C68.7573 72.9195 68.7455 73.0195 68.7534 73.1188C68.7612 73.2181 68.7885 73.3149 68.8337 73.4037C69.3405 74.3955 69.9857 75.3102 70.7498 76.1205C70.105 76.6371 69.4074 77.0843 68.6686 77.4544L67.6364 77.9727C67.4565 78.063 67.3199 78.2211 67.2566 78.4121C67.1933 78.6031 67.2085 78.8115 67.2988 78.9913C67.3891 79.1712 67.5471 79.3078 67.7382 79.3711C67.9292 79.4344 68.1375 79.4192 68.3174 79.3289L69.3496 78.8106C70.248 78.3608 71.0921 77.8101 71.8658 77.169C72.6419 77.81 73.4883 78.3607 74.3887 78.8106L75.421 79.3289C75.51 79.3737 75.607 79.4004 75.7064 79.4076C75.8058 79.4149 75.9056 79.4025 76.0002 79.3711C76.0948 79.3398 76.1823 79.2901 76.2577 79.2249C76.3331 79.1598 76.3949 79.0804 76.4396 78.9913C76.4843 78.9023 76.511 78.8053 76.5183 78.7059C76.5255 78.6066 76.5131 78.5067 76.4817 78.4121C76.4504 78.3175 76.4007 78.2301 76.3356 78.1547C76.2704 78.0793 76.191 78.0175 76.102 77.9727L75.0697 77.4544C74.3292 77.0837 73.6297 76.6361 72.9829 76.119C74.2733 74.7638 75.2119 73.113 75.7166 71.3111ZM58.4188 52.9416C59.0084 52.9416 59.5286 53.3223 59.7764 53.9352L63.0519 62.0381C63.0896 62.1305 63.1086 62.2295 63.108 62.3293C63.1074 62.4292 63.087 62.5279 63.0482 62.6199C63.0093 62.7118 62.9527 62.7952 62.8816 62.8652C62.8104 62.9353 62.7261 62.9906 62.6336 63.028C62.541 63.0654 62.442 63.0842 62.3422 63.0833C62.2424 63.0823 62.1437 63.0617 62.0519 63.0226C61.96 62.9835 61.8768 62.9266 61.807 62.8552C61.7371 62.7839 61.6821 62.6995 61.6449 62.6068L60.4169 59.569H56.4207L55.1927 62.6068C55.1554 62.6992 55.1002 62.7833 55.0304 62.8544C54.9605 62.9254 54.8773 62.982 54.7856 63.021C54.6939 63.0599 54.5954 63.0804 54.4957 63.0812C54.3961 63.0821 54.2973 63.0633 54.2049 63.0259C54.1125 62.9886 54.0284 62.9334 53.9573 62.8636C53.8863 62.7937 53.8297 62.7106 53.7907 62.6188C53.7518 62.5271 53.7313 62.4286 53.7305 62.329C53.7296 62.2293 53.7484 62.1305 53.7858 62.0381L57.0613 53.9352C57.309 53.3223 57.8293 52.9416 58.4188 52.9416ZM58.4188 54.6261L57.0342 58.0514H59.8035L58.4188 54.6261Z" fill="white"/>
<defs>
<filter id="filter0_f_5_118" x="0" y="0" width="130" height="130" filterUnits="userSpaceOnUse" color-interpolation-filters="sRGB">
<feFlood flood-opacity="0" result="BackgroundImageFix"/>
<feBlend mode="normal" in="SourceGraphic" in2="BackgroundImageFix" result="shape"/>
<feGaussianBlur stdDeviation="20" result="effect1_foregroundBlur_5_118"/>
</filter>
</defs>
</svg>
